<?xml version="1.0" encoding="utf-8"?>
<!-- Generator: Adobe Illustrator 21.0.0, SVG Export Plug-In . SVG Version: 6.00 Build 0)  -->
<svg version="1.1" id="logo" xmlns="http://www.w3.org/2000/svg" xmlns:xlink="http://www.w3.org/1999/xlink" x="0px" y="0px"
	 viewBox="0 0 562.3 602.5" style="enable-background:new 0 0 562.3 602.5;" xml:space="preserve">
<style type="text/css">
	.st0{fill:#FF4338;}
	.st1{fill:#FFFFFF;}
	.st2{fill:none;stroke:#333E48;stroke-width:2.85;stroke-miterlimit:10;}
	.st3{fill:#333E48;}
	.st4{fill:none;stroke:#333E48;stroke-width:1.995;stroke-linecap:round;}
	.st5{fill:none;stroke:#333E48;stroke-width:2.1375;stroke-linecap:round;}
	.st6{fill:none;stroke:#333E48;stroke-width:1.71;stroke-linecap:round;}
	.st7{fill:none;stroke:#333E48;stroke-width:1.425;stroke-linecap:round;}
	.st8{fill:none;stroke:#333E48;stroke-width:2.28;stroke-linecap:round;}
	.st9{fill:none;stroke:#333E48;stroke-width:4.3463;stroke-linecap:round;}
	.st10{fill:none;stroke:#333E48;stroke-width:1.14;stroke-linecap:round;}
	.st11{fill:none;stroke:#333E48;stroke-width:1.71;}
	.st12{fill:none;stroke:#333E48;stroke-width:5.5946;stroke-linecap:round;}
	.st13{fill:none;stroke:#333E48;stroke-width:1.8525;stroke-linecap:round;}
	.st14{fill:none;stroke:#333E48;stroke-width:6.689;stroke-linecap:round;}
	.st15{fill:none;stroke:#333E48;stroke-width:5.8453;stroke-linecap:round;}
	.st16{fill:none;stroke:#333E48;stroke-width:2.85;stroke-linecap:round;}
	.st17{fill:none;stroke:#333E48;stroke-width:4.6341;stroke-linecap:round;}
</style>
<path class="st0" d="M338.9,478.8c-5.4-4.6-10.7-8.5-19.5-9.6c-1.7,0.4-4.2,2.5-5.2,4.8c-2.2,5.3-1.2,13.7-2.6,20.1
	c-0.8,3.6-3,6.9-3.4,10.5c-0.5,4.3-0.4,10.6,1.4,13.8c0.6,1.1,2,2,2.6,3.1c1.6,2.8,2.6,6.8,3,10.3c0.4,4.1-0.8,9.1,0.8,12.3
	c0.6,1.2,3,2.7,4.4,2.5c2-0.3,2.6-3,4.2-4c2.4-6.5,7.6-12.6,8.3-20.7c0.8-8.2-3.8-13.2-4.2-20.5c3.8-0.1,6.8,2.3,10.1,3.3
	c5.6-3.2,7.2-10.3,9.3-16.8C345.4,484.7,342.2,481.7,338.9,478.8"/>
<path class="st1" d="M168.7,103.3c0,0,11.7-11.2,13.6-13.2c1.8-2.1,21.5-13.9,21.5-13.9l7.8-13.8c0,0,2.8-1.2,4.9-1.9
	c2.1-0.7,7.8,1.9,7.8,1.9l-22.8,47.5l-28.1,1.2L168.7,103.3z"/>
<path class="st0" d="M174.4,491.2l7.1-0.2c0,0,4.3-1.2,6.9,3.1c3,5,7.1,5,14.2,1.8c1.9-0.9,12.6-3,13.8,1s1.9,21.4,1.2,23.5
	c-0.7,2.2-5.7,7.4-11.3,7.7s-8.3-5.8-10.1-7.7s-3.1-5.5-7.7-5.1c0,0,1.2-0.1-6.9,0.4c-8.6,0.6-12.1-13.3-11.9-16.5
	C169.9,496.1,171.5,493.5,174.4,491.2"/>
<path class="st2" d="M347.7,486.1c64.3-26.3,109.6-89.5,109.6-163.3c0-97.4-78.9-176.3-176.3-176.3s-176.3,78.9-176.3,176.3
	S183.6,499.1,281,499.1c6.4,0,12.7-0.3,18.9-1"/>
<ellipse class="st2" cx="280.9" cy="322.8" rx="279.7" ry="279.7"/>
<path class="st3" d="M78.8,487.9c-1.4-2.1-2.3-3.6-2.4-4.4c-1-2.1-1.6-3.7-1.8-4.7l-1-3.5c-0.1-0.1-0.3-1.3-0.7-3.7
	c-0.2-1.3-0.2-3-0.1-5l1-3.5c0.2-1.7,1.2-3.8,3-6.5c1-1.4,1.8-2.6,2.6-3.6c-0.1-0.2,0.8-1.2,2.7-3.1c-0.1-0.1,1.3-1.5,4.2-4.1
	c2.9-2.3,5.6-4.1,8.2-5.4c0.9-0.7,2.5-1.3,4.8-1.6c4.1,0.3,6.6,0.7,7.5,1.2c1.3,0.5,2.5,1.1,3.5,1.6c1.2,0.3,2.4,0.9,3.8,1.8
	c3,2.2,4.8,3.7,5.3,4.3c0.2-0.1,1.3,1,3.4,3.3c0.8,0.6,2.2,1.8,4,3.6c0.7,0.4,1.4,1,2,1.8l0.1,0.2c0.5,0.6,0.8,1.4,0.9,2.4l0.9,1.8
	c0.9,2.9,0.8,4.9-0.5,5.8l-5.5,4.6l-1.9,1.4c-4.7,4-7.9,6.7-9.5,8.3l-0.6,0.6l-1.7,1.2l-1.7,1.5l-1.3,1l-1.1,1l-4.1,3.1l-0.5,0.4
	l-0.8,0.6l-0.8,0.7l-0.4,0.3c-1.5,1.2-3.6,3.1-6.2,5.6c-0.1,0.3-0.4,0.6-0.7,0.9l-0.8,0.6c-0.7,0.5-1.7,0.8-3.1,0.7
	c-1.1-0.4-1.9-0.8-2.3-1.3l-0.9-1.9c-0.6-0.8-2-2.1-4.2-3.9l-1.3-1.8L78.8,487.9z M95.4,485.1l1.5-1.2l1.1-1l4.9-3.4v-0.1l0.5-0.3
	l5.4-4.5l2.4-2.3c2.7-2.2,4.6-3.9,5.7-4.9l3.2-2.4l3.1-2.5c0.2-0.3,0.3-0.5,0.2-0.6l-2.3-2.2c-3.7-3.8-5.9-6-6.6-6.4
	c-2.8-2.3-5.8-3.9-8.8-5c-0.6-0.4-1.9-0.7-3.8-0.9c-2.1-0.2-3.7,0.1-4.8,1l-2.3,1.3l-3.3,2.5c-1.2,1-3.5,3.2-6.8,6.6
	c-1.3,1.5-2.4,3.1-3.4,4.9c-1,1.6-1.6,3-1.8,4.2c-0.3,0.8-0.2,2.2,0,3.9c0.5,2.4,1.5,5.4,3,9l1.4,1.7c1,1.3,2.6,2.8,4.8,4.3
	c1.4,0.9,2.5,1,3.3,0.4L95.4,485.1z"/>
<path class="st3" d="M62.2,432.3l-1.8-5.8c-0.2-3.6,0.8-7,3.2-10.5l2.8-3.3c0.6-0.6,1.4-1.2,2.4-1.8v0.1v-0.1h0.1
	c1.2-0.6,2.4-0.5,3.8,0.3c0.2,0,0.5,0.2,0.9,0.6c1.7,3.6,2.5,5.4,2.3,5.5l1.3,2.8l0.2,0.4c0.2,0.4,0.8,1.2,1.7,2.4l2.9,4.9l0.3,0.6
	l0.5,1.3c1.4,1.7,2.2,2.5,2.5,2.3l0.6-0.1c2.2-1.7,4.2-3.4,5.9-5c1.4-1.3,2.3-2.5,2.6-3.5c0.5-2,0.4-3.7-0.4-5.2l-0.3-0.6
	c-1.1-2.2-2.9-4-5.3-5.5c-0.7-0.2-1.9-0.3-3.4-0.2c-2.9-0.1-4.4-0.4-4.6-0.7c-0.4,0-0.8-0.5-1.2-1.4c-0.5-1-0.4-2.4,0.4-4.2
	c0.3-0.4,0.8-0.9,1.6-1.4c0.9-0.5,2.1-0.5,3.5-0.1c2.2,0,4.2,0.2,5.9,0.6c1.6,0.6,2.7,1.3,3.3,2c0.3,0.1,1,0.9,2.3,2.4
	c1.1,0.9,2.3,2.5,3.6,4.6c0.8,1.6,1.5,4.2,1.9,7.7c-0.2,1.9-0.3,3-0.5,3.6l-1.4,3.5c-1,1.5-1.8,2.6-2.3,3.1
	c-1.3,1.4-2.9,2.9-4.8,4.5c-1.7,1.5-3.8,2.9-6.2,4.1l-0.6,0.3c-1.9,1-4.3,1.3-7,1c-1.7,0.1-3.6-0.2-5.8-0.8
	c-2.5-0.6-4.3-1.4-5.5-2.5c-2.4-1.7-3.8-3-4.2-3.8L62.2,432.3z M76.1,433.5c-0.1-0.6-0.3-1.3-0.8-2.2c-1-1.9-2.6-4.6-4.7-7.8
	c-0.9-1.7-1.4-2.4-1.6-2.3l-0.3,0.1c-1,1-1.3,1.7-1,2.3c-0.3,1.5-0.2,3,0.3,4.6c1.2,2.4,2.7,3.8,4.3,4.3c0.4,0.5,1.6,0.9,3.4,1.3
	L76.1,433.5z"/>
<path class="st3" d="M17.8,320.7v-0.4c-0.1-1.2,0.5-2.5,1.9-4c1-0.8,1.7-1.2,2.2-1.2h1.3l5.6-0.9l2.5-0.2l4.6-0.5l1-0.1
	c1.9-0.4,4.1-0.8,6.6-1.1h1.2l2.4-0.4v0.1l0.1-0.1l2.7-0.3l1.8-0.1l0.1,0.1l0.1-0.1l1.6-0.1c3.7-0.7,9.4-1.4,17-2.3
	c0-0.1,0.6-0.2,1.7-0.3c1.2-0.1,2.3,0.5,3.3,1.8l0.3,1.2c0.2,1.9-0.3,3.2-1.2,3.9c-0.7,0.9-1.7,1.5-3.2,1.6h-0.2v-0.1l-3.2,0.3
	l-4.2,0.4l-9.6,1.4c-6.5,0.6-12.6,1.4-18.2,2.4l-0.8,0.2c0,0.4,0.9,1,2.7,1.7c0.9,0.7,2.7,1.7,5.4,3.1l1.9,0.8
	c4.3,2.2,8.6,4,12.9,5.4l2.2,0.5c2.3,0.6,4.1,1.1,5.3,1.3c0.2,0.2,0.8,0.3,1.7,0.3l1.4-0.2c1-0.1,2.1,0.5,3.3,1.8
	c0.5,0.7,0.8,1.5,0.8,2.3h-0.1l0.1,0.1c0.1,0.9-0.2,1.9-0.7,3.2c-0.5,0.7-1.7,1.4-3.6,2.3c-0.2,0.3-0.8,0.6-1.7,0.9
	c-0.3,0.3-1.5,0.9-3.7,1.9c-4.6,2.5-9.2,5.3-13.9,8.5l-6.4,4.3l-0.6,0.6c0,0.3,1.5,0.3,4.4,0.1c5.5,0,10.3-0.2,14.5-0.5
	c0,0.2,3.8,0.1,11.4-0.3l1.8-0.3h0.8l1.2-0.2c1-0.1,2,0.4,3,1.4c0.7,1.1,1.1,1.9,1.1,2.4v0.5c-0.3,1.6-0.9,2.8-1.8,3.6
	c-0.5,0.6-1.6,0.9-3.3,1.1l-0.4,0.1l-9.5-0.1c-1.6-0.1-5.2-0.1-10.7,0.1c-0.5-0.1-6.7,0-18.5,0.4l-0.9,0.2h-0.9l-5,0.6h-0.2
	l-2.4,0.6c-1.9,0.2-3.2-0.6-3.9-2.2l-0.2-0.5c-0.2-2.2,0.1-3.5,0.8-4c0.2-0.6,0.7-1.1,1.3-1.6c0.8-0.5,1.8-0.9,3-1.2
	c2.9-1.7,5.3-3.3,7.3-4.8l10-6.7c4.7-3.2,8.1-5.4,10.4-6.6c1.1-0.7,1.7-1.2,1.7-1.4c-0.7-0.4-2.4-1-5.1-1.8
	c-0.5-0.3-2.1-0.9-4.5-1.9c-2.1-1.1-4.1-1.9-5.9-2.5c-0.1-0.2-1.8-1.1-4.9-2.9c-0.5-0.2-2.6-1.4-6.5-3.7c-2.2-1.4-4.7-2.6-7.6-3.7
	c-0.7-0.6-1.5-1-2.4-1.4C18.6,322.3,17.9,321.4,17.8,320.7"/>
<path class="st3" d="M36.9,287.3c0.7-3.2,1.2-4.7,1.5-4.7c2.2-3.2,4.3-5.1,6.5-5.7c1.1-0.5,2.5-0.9,4.1-1c1.1-0.4,2.9-0.5,5.2-0.1
	c2.2,0.3,4.5,0.9,7,1.7l1,0.1l4,0.6c1.2,0.2,2.8-0.1,4.7-0.7c1.8,0.1,2.8-0.1,2.8-0.5c1.4-1.7,2.7-2.4,4.2-2.2l0.8,0.1
	c1.1,0.2,1.9,1.2,2.6,3.3c0.1,0.2,0.1,0.6,0,1l-0.2,1.1c-0.2,1.4-1.1,2.8-2.8,4.4v0.2c0,0.2,0.1,0.7,0.4,1.5
	c0.4,4.9,0.4,8.4,0.1,10.4c-0.3,2.4-1.3,4.7-3,7c-2.1,1.5-3.2,2.3-3.4,2.3c-0.8,0.5-2.3,0.9-4.6,1.1h-0.2c-2.4-0.3-4.5-1.5-6.3-3.5
	c-0.7-0.3-1.7-1.7-3-4.2l-1.9-3.7c-1.6-3.7-2.7-6.6-3.2-8.9c-0.3-2.1-0.6-3.1-0.9-3.2H52c-1.9-0.3-3.3-0.2-4.2,0.2
	c-0.4,0-0.9,0.3-1.7,1.1c-0.8,0.9-1.3,1.8-1.4,2.9c-0.2,1.2,0.5,2.8,2.1,4.8c0.8,0.7,1.4,1.1,1.9,1.2l2.1,0.1c1,0.1,1.7,1,1.9,2.6
	v0.6c-0.2,1.3-1.1,2.4-2.9,3.5c-0.7,0.2-1.2,0.3-1.7,0.2l-1.2-0.2c-2.1-0.3-4.6-2.1-7.5-5.4c-0.6-1-1.4-2.8-2.3-5.4
	C36.9,289.4,36.9,288.6,36.9,287.3 M68,300.9h0.3c1.2-0.3,1.9-0.7,2-1.2c0.6-0.6,1.1-1.9,1.3-3.7c0.4-2.6,0.4-4.6,0.1-6
	c0.1-0.7-0.5-1.4-1.7-1.9c-2.1-1.5-4.1-2.5-6.2-2.8l-3.6-0.5c-0.3,0-0.4,0-0.5,0.2v0.2c0.2,2.4,2,6.7,5.3,12.7
	C66.2,299.6,67.2,300.6,68,300.9"/>
<path class="st3" d="M36.5,253.7c0.2-0.6,0.8-1.1,1.9-1.7c1.5-0.6,3.1-0.7,4.8-0.2l1.2,0.4c0.4,0,0.7-0.1,0.8-0.5v-0.1
	c0.2-0.7,0.3-1.6,0.4-2.6l0.2-0.5l0.3-1.3c0.4-1.4,1.4-2.2,2.9-2.3l2.9,0.5c0.6,0.2,1.2,0.7,1.9,1.6c0.5,1.3,0.6,2.2,0.4,2.9
	l-0.5,1.6c-0.6,3-0.8,4.5-0.8,4.5c-0.2,0.7,1.1,1.4,3.9,2.1l0.4,0.2l1.6,0.4l1.7,0.8c7.3,1.5,12.3,2.4,15.1,2.6c1,0,1.5-0.2,1.6-0.5
	s-0.2-1.6-0.7-3.8L77,255c0.2-0.6,0.9-1,2.3-1.3c0.6,0,1.1,0,1.4,0.1l0.8,0.2c1.4,0.4,2.2,1.5,2.4,3.3c0.9,3,1.3,5,1,5.9
	c0.2,0.7,0.1,1.6-0.2,2.8c-0.4,1.4-1.9,2.6-4.5,3.7c-1.7,0.5-3,0.7-3.8,0.5c-0.6-0.2-1.5-0.3-2.6-0.4l-1.2-0.5c-1,0-2.1-0.1-3.1-0.4
	l-2.3-0.6l-3-0.7l-2.7-0.7l-5.8-1.4l-2.8-0.9c-0.5-0.1-1.2,0.4-1.9,1.7c-1.2,1.2-2.4,1.8-3.5,1.9c-0.6,0.3-1.2,0.3-1.8,0.2l-0.9-0.2
	c-1.1-0.3-2-0.9-2.7-1.9c-0.5-0.7-0.6-2.1-0.4-4.2c0.1-0.8-0.2-1.3-0.8-1.4c-2.6-1.1-4-2-4.3-2.7c-0.4-0.3-0.6-0.8-0.6-1.5
	L36.5,253.7z"/>
<path class="st3" d="M55.8,223.5l0.5-1.3c0.7-0.9,1.4-1.6,2.2-2.1c1.9-0.9,3.3-1.4,4.2-1.4c1.3-0.2,2.2-0.2,2.8,0l0.4,0.2
	c0.9,0.4,1.6,1.2,1.8,2.5c0.2,0.1,0.2,0.7-0.1,1.8c-0.4,1-1.5,1.8-3.3,2.4c-0.4,0.3-0.9,0.9-1.4,1.6c-0.3,0.7,0.2,2.1,1.3,4.2
	c0,0.1,0.2,0.7,0.7,1.7c0.3,0.8,0.8,1.5,1.4,2.2c0.5,0.7,0.8,1.6,0.9,2.5c0.2,0.4,0.5,0.6,0.9,0.8l1.8,0.5l0.3,0.2
	c0.9,0.3,2.7,0.9,5.4,1.7l0.6,0.3l3,1l0.2,0.2l7.6,2.3l0.2,0.1c1.5,0.6,2.4,1.6,2.6,3c0.2,0.5,0.3,1,0.1,1.4l-0.2,0.4
	c-1,1.3-2.3,2.2-3.9,2.5c-1.2,0.3-2.1,0.4-2.8,0.2l-1.5-0.9l-1.2-0.4l-1-0.5l-4.9-1.5l-0.9-0.4l-1.6-0.6V248h-0.1l-10.2-3.5l-6-2.4
	l-2.6-0.9l-0.2-0.1c-1.5-0.6-2.4-1.8-2.5-3.6l0.2-0.8l0.2-0.5c0.6-1.5,1.9-2.4,3.9-2.7c0.5-0.2,0.7-0.4,0.8-0.6c0-1-0.2-2.4-0.6-4.4
	C54.8,226.9,55.1,225.2,55.8,223.5"/>
<path class="st3" d="M70.2,193.3l0.2-0.3c0.5-0.9,1.8-1.6,3.8-2.1c1.5-1.4,3.1-2.1,4.8-2.3c1.7-0.4,4.9-0.3,9.5,0.1
	c1.6,0,3.9,0.7,6.9,2.2l2,1c1.7,1,3.7,2.4,6.1,4.4c0.5,0.3,1.2,0.9,2,1.9c1.3,0.7,2.4,3.1,3.4,7.2c-0.1,2.5-0.4,4.2-0.8,5
	c0,0.8-0.4,2.4-1.2,4.8l-2.5,4.1c-2,2.1-3.6,3.5-4.7,4.3c-0.6,0.6-1.8,1.2-3.5,1.9c-0.8,0.6-2.6,1.1-5.4,1.3
	c-1.4-0.1-3.1-0.4-5.1-0.9c-1.3-0.3-2.8-0.9-4.8-1.7c-0.4-0.1-1.6-0.5-3.6-1.5c-1-0.6-3-2.1-5.9-4.6c-0.2-0.3-0.7-0.9-1.6-1.9
	c0-0.1-0.3-0.5-0.9-1.3c-0.8-1.6-1.4-3.4-1.8-5.3c-0.3-2.7-0.2-4.4,0.1-5.2c0.1-1.5,0.2-3.1,0.5-4.6c0.3-1.4,0.7-2.6,1.4-3.7
	L70.2,193.3z M80,216.2l1,0.5l1,0.8c2.6,1,4.8,1.6,6.7,2l1.5,0.3c1.6-0.1,2.4-0.2,2.5-0.3c1.4-0.8,2.4-1.6,3.1-2.5
	c0.8-0.5,1.9-1.9,3.3-4.2c1-3.7,1.5-6.1,1.3-7.1c-0.3-1.5-1-2.6-1.9-3.4l-3.6-3c-0.3-0.4-0.8-0.8-1.7-1.3c-3.3-1.7-5.1-2.4-5.2-2.2
	c-0.7-0.1-1.5-0.3-2.6-0.7c-1.3,0.1-2.8,0.1-4.5,0c-1.8,0.7-2.9,1.4-3.2,2l-0.6,0.8c-1.2,2.4-1.8,4.2-1.9,5.2
	c-0.6,1.4-0.7,3.7-0.2,6.9c0,0.7,0.4,1.5,1.2,2.2c0.3,0.8,1.6,2.2,4,4L80,216.2z"/>
<path class="st3" d="M96.5,157.5l0.2-0.2c0.7-0.8,2.1-1.3,4.1-1.4c1.7-1.1,3.4-1.5,5.1-1.4c1.8-0.1,4.9,0.5,9.3,1.8
	c1.5,0.3,3.7,1.4,6.4,3.4l1.8,1.3c1.5,1.2,3.2,3.1,5.2,5.4c0.5,0.4,1,1.1,1.7,2.2c1.1,0.9,1.8,3.5,2.1,7.7c-0.5,2.5-1.1,4-1.7,4.8
	c-0.1,0.8-0.8,2.3-2.1,4.5l-3.2,3.6c-2.3,1.7-4.2,2.8-5.4,3.3c-0.7,0.5-2,0.9-3.8,1.3c-0.9,0.5-2.8,0.6-5.6,0.3
	c-1.4-0.3-3-1-4.9-1.8c-1.2-0.5-2.6-1.4-4.4-2.5c-0.4-0.1-1.4-0.8-3.3-2.1c-0.9-0.8-2.5-2.6-5-5.6c-0.1-0.3-0.6-1-1.3-2.1
	c0-0.1-0.2-0.6-0.6-1.4c-0.5-1.7-0.8-3.5-0.9-5.6c0.2-2.7,0.6-4.4,1-5.1c0.3-1.5,0.8-3,1.3-4.4c0.5-1.3,1.2-2.4,2-3.4L96.5,157.5z
	 M101.9,181.8l0.9,0.7l0.8,0.9c2.4,1.4,4.5,2.5,6.2,3.2l1.5,0.5c1.6,0.2,2.4,0.2,2.5,0.1c1.5-0.5,2.7-1.1,3.4-1.9
	c0.9-0.4,2.3-1.6,4-3.6c1.7-3.5,2.5-5.7,2.5-6.8c-0.1-1.5-0.5-2.7-1.3-3.7l-3-3.6c-0.2-0.5-0.7-1-1.4-1.6c-3-2.3-4.6-3.3-4.8-3
	c-0.6-0.2-1.5-0.6-2.5-1.2c-1.3-0.2-2.8-0.4-4.4-0.8c-1.9,0.4-3.1,0.8-3.5,1.4l-0.8,0.7c-1.6,2.2-2.5,3.8-2.8,4.7
	c-0.8,1.2-1.3,3.5-1.5,6.7c-0.1,0.7,0.2,1.5,0.8,2.4c0.1,0.9,1.2,2.4,3.2,4.7L101.9,181.8z"/>
<path class="st3" d="M118.3,131.7l2.2-1.9c2.3-1.3,4.7-2,7.1-2.2c1.5-0.1,3.1,0.3,4.7,1.1c0.6,0.4,1.2,0.7,1.5,1.2
	c1.5,1.7,2,3,1.5,3.6c-0.3,0.6-0.6,1-1,1.4c-1.1,1-2,1.4-2.5,1.2c-0.6,0-1.5-0.3-2.7-0.7c-1.6,0-3.4,0.4-5.3,1.4l-0.6,0.6
	c-1.1,1.5-1.7,3.1-1.8,4.7c0,1.5,0.4,2.6,1,3.3c1.4,0.9,2.2,1.2,2.5,1c0.9-0.1,2.3-0.5,4.3-1.3c0.4,0,1.4-0.3,3.1-0.8
	c1.5-0.4,4-0.6,7.7-0.8c4,0.9,6.5,1.7,7.5,2.4c0.6,0.1,1.4,0.7,2.4,1.8l0.6,0.7c1.4,1.6,2.2,3.4,2.6,5.3c0.5,0.9,0.7,2.6,0.6,5.3
	c-0.2,0.8-0.5,1.4-0.9,2c0,0.5-0.6,1.6-2,3.1l-0.2,0.2c-4,2.4-6.3,3.6-6.9,3.7c-1.8,0.5-3.4,0.7-4.9,0.7c-1.3,0.4-2.8,0.2-4.5-0.7
	c-0.9-0.5-1.5-0.8-1.7-1c-0.6-0.7-0.5-1.8,0.2-3.2l1.4-1.4l0.1-0.1c0.5-0.5,2-0.7,4.4-0.6c0.4,0,1.2-0.3,2.4-0.9
	c1.2-0.3,2.6-1,4.2-2.1c0.9-0.7,0.6-2.5-0.7-5.2l-0.6-0.7c-0.8-0.8-2-1.2-3.5-1.4c-2.6-0.1-4.5,0-5.7,0.3l-3.5,0.9
	c-0.3,0.3-1.5,0.6-3.4,0.9c-2.5,0.7-5.2,0.2-8.2-1.3l-2-1.7l-0.9-1.1c-1.6-2.2-2.5-3.8-2.6-4.7c-0.8-2.9-0.2-6.2,1.8-9.9
	C116.7,133.4,117.5,132.4,118.3,131.7"/>
<path class="st3" d="M435.4,128.1l4,4.6c1.7,3.1,2.2,6.8,1.4,10.9l-1.2,4c-0.3,0.8-0.8,1.6-1.5,2.6H438v0.1l-0.1,0.1
	c-0.8,1-2,1.5-3.6,1.2c-0.2,0.1-0.5,0-1.1-0.2c-3.1-2.6-4.5-3.9-4.4-4.1l-2.3-2.1l-0.4-0.3c-0.4-0.3-1.2-0.8-2.5-1.5l-4.7-3.2
	l-0.5-0.4l-1-1c-1.9-1-3-1.3-3.2-1.1l-0.5,0.3c-1.3,2.5-2.4,4.9-3.3,7c-0.8,1.7-1.1,3.2-0.9,4.3c0.4,2,1.2,3.5,2.5,4.6l0.5,0.4
	c1.9,1.5,4.3,2.5,7.1,2.8c0.8-0.1,1.8-0.5,3.2-1.2c2.7-1.1,4.2-1.5,4.5-1.2c0.4-0.1,0.9,0.1,1.7,0.7c0.9,0.7,1.4,2,1.4,4
	c-0.1,0.5-0.4,1.1-0.9,2c-0.6,0.8-1.7,1.3-3.1,1.6c-2,0.9-3.9,1.5-5.7,1.9c-1.7,0.1-3,0-3.8-0.5c-0.3,0-1.3-0.4-3.1-1.3
	c-1.4-0.4-3.1-1.3-5.1-2.7c-1.5-1.2-3.1-3.2-4.9-6.2c-0.6-1.8-0.9-2.9-1-3.5l-0.2-3.8c0.3-1.8,0.6-3.1,0.8-3.8
	c0.6-1.9,1.5-3.9,2.5-6c0.9-2.1,2.3-4.2,3.9-6.3l0.4-0.5c1.4-1.7,3.3-3,5.9-3.8c1.5-0.8,3.3-1.3,5.6-1.6c2.5-0.5,4.5-0.5,6,0
	c2.9,0.6,4.7,1.2,5.4,1.7L435.4,128.1z M422.2,132.8c0.3,0.5,0.8,1.1,1.6,1.7c1.7,1.4,4.2,3.1,7.5,5.2c1.5,1.2,2.3,1.6,2.4,1.4
	l0.2-0.2c0.5-1.3,0.5-2.1,0-2.5c-0.3-1.5-1-2.8-2.2-4c-2.1-1.7-4-2.4-5.7-2.2c-0.6-0.3-1.8-0.2-3.6,0.2L422.2,132.8z"/>
<path class="st3" d="M455.2,145.5l0.3,0.3c0.7,0.8,1.1,2,1,3.6l-0.9,2.7l0.2,0.2l5.8,2.4c1.2,0.7,1.9,1.2,2.2,1.5
	c2.1,2.4,3.2,4.1,3.3,5.3c0.5,2.5,0.2,4.9-1,7.1c-0.9,1.9-2,3.8-3.2,5.6c-0.5,1.3-3.3,4.5-8.3,9.6l-1.5,1.1l-0.9,1l-1.5,1l-0.2,0.3
	c-0.4,0.2-0.8,0.6-1.4,1l-0.7,0.6l-0.7,0.7c-2.1,1.7-3.5,2.6-4.3,2.9c-1,0-1.8-0.2-2.6-0.7l-0.3-0.2c-0.5-0.7-1-1.7-1.3-3.1
	c-0.1-1.4,0.2-2.4,1-3.1c-0.1-0.1,0.1-0.3,0.4-0.6c0.7-0.2,3.1-2,7.2-5.3l2.1-1.8l0.4-0.4c3.5-3.6,5.3-5.4,5.1-5.6
	c0.6-0.5,1.2-1.4,1.8-2.6c2.1-3,2.9-4.8,2.4-5.3v-0.1c-1-1.1-2.4-2-4.1-2.8c-1.6-0.2-3.1-0.5-4.5-0.9c-0.1,0.1-0.7,0.1-2,0
	c-1.5-0.2-2.3-0.2-2.5,0l-0.2,0.1l-0.8,0.8l-1.7,1.4l-0.2,0.4l-1.3,1.1c-0.9,0.8-2.2,2.2-3.8,4.1l-5.3,5l-2.8,3
	c-1.7,0.6-2.8,0.6-3.5-0.1c-0.9-1-1.5-2.6-1.6-4.6c0.1-0.7,0.5-1.4,1.4-2.2l2.2-2.3l1.4-1.1c3.3-3.2,5.3-5.1,6.1-5.9l0.7-0.7
	l2.8-2.4l1.3-1.5l0.6-0.4l1.1-1.2l0.6-0.5l0.9-0.9l0.7-0.5l3.9-4.3c0.6-0.6,1.1-1.1,1.4-1.5c1.5-0.9,2.5-1.2,2.7-0.9
	C454,144.8,454.8,145.1,455.2,145.5"/>
<path class="st3" d="M512.9,191.3l0.3,0.6c0.3,0.6,0.2,1.6-0.3,3c-0.9,1.3-1.6,2.1-2.2,2.4c-1.7,0.6-4,1.5-6.7,2.9l-8.7,5.2
	l-0.3,0.1c-0.2,0.2-0.2,0.3-0.2,0.3v0.1c0.1,0.2,0.8,0.7,2,1.3c0.9,0.5,2.1,1.7,3.7,3.5c1.1,1.1,2.2,2.7,3.3,4.9v0.1
	c0.6,2.7,0.7,4.2,0.4,4.3c0.1,0.2-0.2,1.3-1,3.1c-1.6,2.6-2.8,4.1-3.5,4.5c-0.3,0.5-1.4,1.4-3.3,2.7l-7,4.3l-0.1,0.1h-0.1v0.1
	l-0.4,0.2l-1.7,0.7l-0.2,0.2c-1.9,0.8-4.1,1.5-6.5,2.3c-3,1.3-4.8,2-5.4,2c0-0.1-0.3,0-0.8,0.2c-1.6,0.1-2.7-0.4-3.2-1.6l-0.2-0.5
	c-0.6-1.2-0.3-2.8,0.9-4.7c0.4-0.4,0.7-0.6,1.1-0.8l0.4-0.2c1-0.5,2.4-0.9,4.2-1.2l7.6-2.6l3.6-2.1l1.4-0.6l4.2-2.6l1.8-1.4
	c1-1.1,1.2-2.1,0.8-3l-2.2-3.1c-1.3-1.3-2.6-2.2-3.9-2.8c-2.7-0.9-4.2-1.6-4.6-2.2c-0.4-0.3-0.9-0.3-1.4,0l-0.1,0.1v0.1l-0.5,0.2
	l-0.3,0.2c-5.9,2.8-9.8,4.4-11.6,4.9l-0.6,0.4l-1.6,0.6l-2.1,1.1l-1.5,0.7l-0.4,0.3l-0.4,0l-0.3,0.1l-1.6,1
	c-1.6,0.4-2.5,0.5-2.6,0.2c-0.3,0.2-1-0.6-1.9-2.3c-0.5-1-0.2-2.5,0.9-4.6c0.3-0.4,0.6-0.6,1-0.8l1.8-0.6l0.6-0.4
	c1.4-0.7,5.1-2.2,11-4.6c2.8-1.3,5.1-2.2,6.7-2.7l0.7-0.4l2.3-1l1.5-0.9l0.8-0.3l2.1-1c1.2-1,2.9-1.9,4.9-3c1.3-0.6,3.6-2,6.9-4.2
	l0.6-0.3l0.9-0.3l4.8-2.6c2.8-1.4,4.7-1.6,5.7-0.5L512.9,191.3z"/>
<path class="st3" d="M517.4,248.7l0.7,6c-0.4,3.5-2,6.8-5,9.8l-3.3,2.7c-0.7,0.5-1.6,0.9-2.7,1.3v-0.1v0.1H507
	c-1.3,0.4-2.5,0.1-3.6-1c-0.2-0.1-0.5-0.3-0.8-0.7c-1.1-3.8-1.5-5.8-1.3-5.9l-0.8-3l-0.1-0.4c-0.1-0.5-0.5-1.3-1.2-2.6l-2-5.3
	L497,249l-0.4-1.4c-1.1-1.9-1.7-2.8-2-2.7H494c-2.5,1.3-4.7,2.6-6.7,3.9c-1.6,1-2.7,2-3.2,3c-0.8,1.9-1,3.6-0.5,5.2l0.2,0.7
	c0.7,2.4,2.1,4.5,4.2,6.4c0.7,0.3,1.8,0.6,3.4,0.8c2.8,0.6,4.3,1.1,4.4,1.5c0.4,0.1,0.7,0.6,1,1.6c0.3,1.1,0,2.5-1.1,4.1
	c-0.3,0.3-1,0.7-1.8,1.1c-0.9,0.3-2.1,0.1-3.5-0.5c-2.2-0.4-4.1-1-5.7-1.7c-1.5-0.9-2.5-1.7-2.9-2.5c-0.2-0.2-0.8-1.1-1.8-2.8
	c-0.9-1.1-1.8-2.8-2.7-5.1c-0.5-1.8-0.7-4.4-0.6-7.9c0.5-1.8,0.9-2.9,1.1-3.4l2-3.2c1.3-1.3,2.2-2.2,2.8-2.7
	c1.6-1.2,3.4-2.4,5.5-3.6c2-1.2,4.2-2.2,6.8-3l0.7-0.2c2.1-0.6,4.4-0.6,7.1,0.2c1.7,0.2,3.5,0.8,5.5,1.8c2.3,1,4,2.2,5,3.4
	c2.1,2.1,3.2,3.6,3.5,4.5L517.4,248.7z M503.9,245.2c0,0.6,0.1,1.3,0.4,2.3c0.6,2.1,1.7,4.9,3.3,8.5c0.5,1.8,0.9,2.6,1.2,2.6
	l0.3-0.1c1.1-0.8,1.6-1.5,1.4-2.1c0.6-1.4,0.7-2.9,0.5-4.5c-0.8-2.6-2-4.2-3.5-5c-0.3-0.6-1.4-1.2-3.1-1.8L503.9,245.2z"/>
<path class="st3" d="M532.3,277.8c0.1,0.6-0.2,1.4-1,2.3c-1.1,1.2-2.6,1.9-4.3,2.2l-1.2,0.1c-0.4,0.1-0.6,0.4-0.5,0.8v0.2
	c0.1,0.7,0.4,1.6,0.8,2.6v0.6l0.2,1.3c0.2,1.5-0.3,2.5-1.7,3.3l-2.8,0.8c-0.6,0.1-1.4-0.1-2.4-0.7c-1-1-1.5-1.8-1.6-2.4l-0.2-1.7
	c-0.7-3-1.1-4.5-1.2-4.4c-0.1-0.7-1.6-0.8-4.5-0.3h-0.5l-1.6,0.3h-1.9c-7.2,1.7-12.2,3-14.8,4c-0.9,0.4-1.3,0.8-1.2,1.1
	c0,0.3,0.8,1.4,2.3,3.2l0.7,2.8c0.1,0.6-0.4,1.3-1.5,2.2c-0.6,0.3-1,0.5-1.3,0.5l-0.8,0.1c-1.4,0.2-2.6-0.4-3.6-2
	c-2.1-2.3-3.3-4-3.4-4.9c-0.5-0.6-0.8-1.4-1-2.6c-0.2-1.4,0.6-3.2,2.5-5.2c1.3-1.2,2.4-1.9,3.3-2.1c0.6-0.1,1.5-0.4,2.5-0.7l1.3-0.1
	c0.9-0.5,1.9-0.8,3-1l2.4-0.4l3-0.7l2.8-0.5l5.9-1.2l2.9-0.3c0.5-0.1,0.9-0.9,1-2.4c0.6-1.5,1.4-2.6,2.4-3.2c0.5-0.5,1-0.8,1.6-0.9
	l0.9-0.2c1.1-0.2,2.2,0,3.3,0.6c0.7,0.4,1.4,1.6,2.1,3.7c0.3,0.7,0.7,1.1,1.3,1c2.8-0.1,4.5,0.1,5.1,0.6c0.5,0.1,0.9,0.5,1.2,1.1
	L532.3,277.8z"/>
<path class="st3" d="M538.1,383.6L538,384c-0.2,1.1-1.1,2.3-2.7,3.4c-1.1,0.5-1.9,0.7-2.5,0.6l-1.3-0.4l-5.7-0.5l-2.5-0.4l-4.6-0.6
	l-1-0.2c-1.9,0-4.2-0.2-6.7-0.5l-1.2-0.3l-2.4-0.2v-0.1l-0.1,0.1l-2.7-0.3l-1.8-0.3l-0.1-0.1l-0.1,0.1l-1.5-0.2
	c-3.8-0.2-9.5-0.8-17-1.8c0,0.1-0.6,0-1.7-0.1c-1.2-0.2-2.1-1-2.7-2.6v-1.3c0.3-1.9,1-3.1,2.1-3.4c0.9-0.8,2-1,3.5-0.8h0.2v0.1
	l3.2,0.4l4.2,0.6l9.6,1c6.4,1,12.5,1.7,18.3,2h0.9c0.1-0.4-0.7-1.2-2.2-2.3c-0.7-0.9-2.3-2.3-4.5-4.2l-1.7-1.3
	c-3.6-3.2-7.4-5.9-11.2-8.3l-2-1c-2.1-1.2-3.7-2-4.9-2.5c-0.2-0.2-0.7-0.5-1.6-0.7l-1.4-0.1c-1-0.2-1.9-1-2.8-2.5
	c-0.3-0.8-0.4-1.6-0.3-2.4h0.1l-0.1-0.1c0.1-0.9,0.6-1.8,1.5-2.9c0.6-0.5,2-1,4.1-1.3c0.2-0.3,0.9-0.4,1.9-0.4
	c0.4-0.2,1.7-0.5,4-0.9c5.1-1.3,10.2-3,15.5-5l7.3-2.6l0.7-0.4c0-0.3-1.4-0.7-4.2-1.1c-5.3-1.3-10-2.3-14.2-2.9
	c0-0.2-3.7-1-11.2-2.4l-1.9-0.1l-0.8-0.2l-1.2-0.1c-1-0.2-1.9-0.8-2.6-2.1c-0.4-1.2-0.6-2.1-0.5-2.6l0.1-0.5
	c0.6-1.5,1.5-2.5,2.6-3.1c0.6-0.4,1.7-0.5,3.5-0.2h0.4l9.2,2.4c1.5,0.5,5,1.3,10.4,2.4c0.5,0.2,6.5,1.6,18.1,4l0.9,0.1l0.9,0.2
	l4.9,0.6h0.2h2.5c1.9,0.3,3,1.3,3.3,3l0.1,0.5c-0.3,2.1-0.9,3.4-1.7,3.8c-0.4,0.5-0.9,0.9-1.6,1.2c-0.9,0.3-1.9,0.4-3.2,0.4
	c-3.2,1-6,1.9-8.2,2.9l-11.3,4.1c-5.3,2-9.2,3.3-11.6,3.9c-1.3,0.4-1.9,0.7-2,1c0.6,0.6,2.1,1.6,4.5,2.9c0.5,0.4,1.8,1.4,4,2.9
	c1.8,1.5,3.5,2.8,5.1,3.9c0.1,0.2,1.5,1.5,4.1,3.9c0.4,0.3,2.2,2,5.4,5.1c1.8,1.9,4,3.7,6.5,5.4c0.5,0.7,1.2,1.4,2,1.9
	C537.7,381.9,538.2,382.9,538.1,383.6"/>
<path class="st3" d="M509.6,414.1l-3.3,5.1c-2.5,2.5-5.9,4-10,4.4H492c-0.8-0.1-1.8-0.3-2.9-0.7v-0.1H489h-0.1
	c-1.2-0.5-2-1.5-2.2-3.1c-0.1-0.2-0.2-0.5-0.2-1.1c1.6-3.7,2.5-5.4,2.7-5.4l1.3-2.8l0.2-0.4c0.2-0.4,0.4-1.4,0.7-2.8l1.8-5.4
	l0.2-0.6l0.7-1.2c0.4-2.1,0.4-3.3,0.1-3.4l-0.4-0.4c-2.8-0.6-5.3-1-7.7-1.2c-1.9-0.2-3.4-0.1-4.4,0.3c-1.8,0.9-3.1,2.2-3.7,3.7
	l-0.3,0.6c-0.9,2.3-1.2,4.8-0.7,7.6c0.3,0.7,1,1.6,2.1,2.8c1.8,2.3,2.6,3.6,2.4,3.9c0.2,0.3,0.1,0.9-0.2,1.8
	c-0.4,1.1-1.6,1.9-3.4,2.5c-0.5,0-1.2-0.1-2.1-0.3c-0.9-0.4-1.7-1.2-2.4-2.6c-1.4-1.7-2.6-3.3-3.4-4.9c-0.6-1.6-0.8-2.9-0.6-3.8
	c-0.1-0.3,0-1.4,0.3-3.3c0-1.4,0.4-3.3,1.1-5.7c0.7-1.7,2.2-3.9,4.6-6.5c1.5-1.1,2.5-1.7,3.1-1.9l3.6-1.2c1.8-0.2,3.1-0.3,3.9-0.3
	c2,0.1,4.1,0.3,6.5,0.7c2.3,0.3,4.7,1,7.2,2l0.6,0.3c2,0.8,3.8,2.4,5.3,4.6c1.2,1.2,2.2,2.8,3.1,4.9c1.1,2.3,1.7,4.2,1.7,5.8
	c0.3,2.9,0.2,4.8-0.1,5.7L509.6,414.1z M501.4,402.8c-0.4,0.4-0.8,1.1-1.2,2c-0.8,2-1.8,4.9-2.9,8.7c-0.7,1.7-0.9,2.6-0.7,2.7
	l0.3,0.1c1.4,0.1,2.2-0.1,2.4-0.7c1.3-0.7,2.4-1.8,3.2-3.2c1-2.5,1.2-4.5,0.5-6.1c0.1-0.7-0.3-1.8-1.2-3.4L501.4,402.8z"/>
<path class="st3" d="M498.2,438.2c-1.2,1.6-2,2.4-2.3,2.2c-2,0.5-3.4,0.5-4.1,0.1c-0.8-0.4-2-1.4-3.8-2.8l-7.7-4.7
	c0-0.1-0.3-0.3-0.9-0.8l-1.6-0.8l-0.9-0.5l-0.3-0.1c-0.7-0.6-1.5-1.2-2.3-1.6l-0.9-0.5l-6.4-3.4l-2.5-0.9l-1.6-0.9l-0.8-0.3
	c-1.2-1.2-1.7-1.9-1.5-2.3c-0.1-0.6-0.1-1.1,0.1-1.5l0.4-0.8c1.2-1.2,2-1.7,2.3-1.6c1.5-0.6,3-0.4,4.8,0.5l0.6,0.3l0.7,0.5l0.9,0.4
	l1.9,1l0.3,0.3l0.3,0.1c4.8,2.6,9,5.1,12.6,7.5l1.2,0.6l3.2,2l3.9,1.7l3.9,2.7C498.6,436,498.7,437.2,498.2,438.2 M515.7,446.1
	c-0.2,0.4-1,1-2.4,2c-0.9,0.5-2.1,0.6-3.5,0.3l-0.7-0.3l-0.5-0.3c-1.1-0.6-1.8-1.9-2.2-4c0.1-0.6,0.2-1.2,0.5-1.8l0.2-0.4
	c0.9-1.7,2.8-2.1,5.8-1.3l0.9,0.3c1.7,0.9,2.5,2.5,2.2,4.7L515.7,446.1z"/>
<path class="st3" d="M490.1,458.4l-1.6,2.5c-1.9,1.9-3.9,3.2-6.2,4c-1.4,0.5-3,0.5-4.8,0.2c-0.7-0.2-1.3-0.4-1.8-0.7
	c-1.9-1.3-2.7-2.3-2.4-3.1c0.1-0.6,0.3-1.2,0.6-1.6c0.8-1.2,1.5-1.9,2-1.8c0.6-0.1,1.5-0.1,2.8,0c1.6-0.4,3.2-1.3,4.8-2.8l0.5-0.7
	c0.7-1.8,0.8-3.5,0.4-5c-0.4-1.4-1-2.4-1.8-2.9c-1.5-0.5-2.4-0.6-2.6-0.3c-0.8,0.3-2.1,1.1-3.8,2.4c-0.4,0.1-1.3,0.7-2.8,1.6
	c-1.3,0.8-3.7,1.7-7.2,2.8c-4.1,0.2-6.7,0.1-7.9-0.3c-0.6,0.1-1.5-0.3-2.8-1.1l-0.8-0.5c-1.7-1.2-3.1-2.6-4-4.4
	c-0.7-0.7-1.3-2.4-1.9-4.9c0-0.8,0.1-1.5,0.3-2.1c-0.2-0.5,0.2-1.7,1.1-3.5l0.1-0.2c3.2-3.3,5.1-5.1,5.6-5.4c1.6-1,3.1-1.6,4.5-2
	c1.2-0.7,2.6-0.9,4.5-0.6c1,0.2,1.7,0.4,1.9,0.5c0.8,0.5,1,1.6,0.6,3.1l-1,1.8v0.1c-0.4,0.6-1.8,1.2-4.1,1.8c-0.4,0.1-1,0.6-2,1.5
	c-1,0.6-2.2,1.7-3.5,3.2c-0.6,0.9,0.1,2.5,2,4.8l0.8,0.5c1,0.5,2.3,0.6,3.8,0.4c2.6-0.6,4.4-1.2,5.4-1.8l3.1-1.8
	c0.2-0.4,1.3-1,3.1-1.8c2.2-1.3,5-1.6,8.3-0.9l2.4,1.1l1.2,0.8c2.2,1.7,3.4,3,3.7,3.8c1.6,2.6,1.9,5.9,0.9,10
	C491.2,456.3,490.7,457.5,490.1,458.4"/>
<path class="st3" d="M475.3,475.2l-0.2,0.3c-0.9,1.1-2.2,1.6-4.1,1.7c-1.3-0.5-2.2-0.8-2.5-1.1c-0.4-0.3-1.2-1.4-2.6-3.2l-2.6-2.7
	l-3.1-2.5l-1.7-1.4c-2.2-1.4-5.2-3.5-9.1-6.5l-1.7-1l-0.4-0.3l-5.5-4l-0.9-0.9l-0.5-0.3c-1.6-1.3-3.4-3-5.1-4.9
	c-1.6-1.9-2.7-3.3-3.3-4.2c-1.9-3.6-2.7-6.1-2.3-7.5c-0.1-0.1,0.3-1.1,1.2-3l1.1-1.9c0.9-1.1,2.4-2.4,4.6-3.7c1-0.4,2.9-0.6,5.6-0.7
	c0.2-0.2,1.1,0.1,2.8,1l0.3,0.2c1.4,1.4,1.8,2.7,1,3.7l-0.8,1.2c-0.6,0.7-2.3,1.2-5.2,1.4c-0.4,0.1-0.8,0.4-1,0.7
	c-1.1,1.3-1.3,2.4-0.7,3.2c0.1,0.9,1.3,2.8,3.6,5.6l3.4,3.3l0.9,1.1l0.7,0.4l2.9,2.6l1,0.8l1.1,1l4.1,2.7l0.2,0.1l2.5,2.1l1.7,1.1
	l0.5,0.5l1.5,1.1l0.7,0.6l1.5,1l1.2,1.2l1.6,1.2l0.5,0.5l1.2,0.8c3.8,3.1,5.9,5.2,6.1,6.5C475.8,473.8,475.7,474.6,475.3,475.2
	 M490.1,485.8c-1.8,1.5-2.9,2.1-3.2,1.9c-1.8,0.1-3-0.1-3.6-0.5l-0.2-0.1c-1.8-1.4-2.5-2.9-2.2-4.5c-0.2-0.1,0.2-0.8,1-2l0.3-0.4
	c0.9-1.1,2.7-1.4,5.3-0.7c0.2,0.1,0.6,0.3,1.1,0.7l0.8,0.7c0.8,0.6,1.2,1.9,1.2,4L490.1,485.8z"/>
<path class="st3" d="M455.1,495.4l-5,3.5c-3.3,1.3-7,1.4-10.9,0.2l-4-1.7c-0.7-0.4-1.5-1-2.4-1.8l0.1-0.1h-0.1l-0.1-0.1
	c-0.9-0.9-1.2-2.2-0.8-3.7c0-0.2,0-0.5,0.3-1c2.9-2.7,4.4-4,4.6-3.9l2.3-2.1l0.3-0.3c0.3-0.3,0.9-1.1,1.8-2.3l3.7-4.3l0.4-0.4
	l1.1-0.9c1.2-1.8,1.7-2.9,1.4-3.1l-0.3-0.5c-2.3-1.6-4.5-3-6.6-4.1c-1.6-1-3-1.4-4.2-1.4c-2,0.1-3.7,0.8-4.8,2l-0.5,0.5
	c-1.8,1.8-3,4-3.6,6.7c0,0.8,0.3,1.9,0.8,3.4c0.7,2.8,1,4.3,0.7,4.6c0.1,0.4-0.2,0.9-0.9,1.6c-0.8,0.8-2.2,1.1-4.1,0.9
	c-0.5-0.2-1.1-0.5-1.9-1.1c-0.7-0.7-1.1-1.8-1.2-3.3c-0.7-2.1-1.1-4.1-1.2-5.8c0.1-1.8,0.4-3,0.9-3.7c0-0.3,0.6-1.3,1.6-2.9
	c0.6-1.3,1.6-2.9,3.3-4.8c1.3-1.3,3.6-2.7,6.7-4.2c1.8-0.4,3-0.6,3.6-0.6l3.8,0.3c1.8,0.5,3,0.9,3.7,1.3c1.8,0.8,3.7,1.9,5.7,3.2
	c2,1.2,3.9,2.7,5.8,4.6l0.5,0.5c1.5,1.5,2.6,3.7,3.1,6.3c0.6,1.6,0.9,3.5,1,5.7c0.2,2.5-0.1,4.5-0.7,6c-0.9,2.8-1.7,4.5-2.3,5.2
	L455.1,495.4z M452,481.9c-0.5,0.2-1.1,0.7-1.9,1.4c-1.6,1.5-3.6,3.8-6,6.9c-1.3,1.3-1.9,2.1-1.7,2.3l0.2,0.2c1.2,0.6,2,0.7,2.5,0.3
	c1.5-0.1,2.9-0.7,4.2-1.7c1.9-1.9,2.8-3.7,2.8-5.4c0.4-0.6,0.4-1.8,0.2-3.6L452,481.9z"/>
<path class="st1" d="M222.2,484.2l27.3-4.2l-5-58.2l35.2,35.4l4.5,6.4c0,0,12.8,21.3,14.9,23.9c2.1,2.7,1.5,9.8,4,17.7
	c2.6,7.9,4.4,5.2,4.4,5.2s4.9-34.1,6.7-38.7c1.8-4.6,6.1-10.3,3.8-15.4c-1.7-1.2,4.1,3.8,4.1,3.8s-16.7-24.8-14.5-26.2
	s2.1,19.6,3.6,16.9c1.5-2.7,7.5,8.2,7.5,8.2l8.2,2.6c0,0-1.4-2.3-2.1-3s-27.3-91.9-27.3-91.9S287,304.2,284,296.8
	c-3.1-7.4-2.7-42.8-2.2-47.8s9.4-9.1,12-10.5c2.6-1.3,5.2-7,12.1-10.4s17.6-11.8,18.6-15.9c1.1-4.1,2.2-14.4,3.2-18.6
	c0.9-4.2,1.7-7.2,1.7-7.2s32.2-35.6,34-37.7s6.4-9.1,6.4-9.1l35.3-23.7c0,0,3.4-2.3,4.7-5.5c1.3-3.2-3.8-1.8-2.8-4.1
	s1.8-5.8,0.6-7.9c-1.2-2.1,0-2.1,0-2.1s1.1-8.8,0.9-10.8c-0.3-2-9.6-12.7-9.6-12.7s-2.3-0.5-3-2.2c-0.7-1.8-5.1-6.6-8.9-4.2
	c-3.8,2.5-23,6.2-23.5,7.6c-0.5,1.4-5.9,3.6-10.1,4.4c-4.2,0.8-0.3-3.3,0-3.5s6.1-8.2,7-8.5c0.9-0.4-1.1-6.3,4.6-6.4
	c5.7-0.1,6.4-6.6,6.4-6.6l-2.6-2.2l-1.6-13.8l0.8-14.7L368.7,7c0,0-7-2.3-16.7-4.1c-9.6-1.8-22.6-2.3-30.5-0.2c-7.9,2.1-11,8-11,8
	s-6.6,6.9-11.8,9.9c-5.2,3-8.2,10.6-8.2,10.6l-0.9,3.9l-14-1.1l-25.2,20.9l-59.8,64.2l-5.7,50.6c0,0-2.5,4.9-7.6,12.7
	c-5.1,7.8,2,11.7,2,11.7s0.2,5.7-1,10.3c-1.2,4.7-5,14.2-5,14.2s-6.2,14.8-16.4,42.1s-18.7,58.5-18.7,58.5
	c0.1,0.2-5.3,18.9-4.9,18.8c0.3-0.1-1.4,2.8,2.4,7.3c5.8,5.4,19.7,9.4,20.1,9.4c0.4-0.1,11.2,2.4,13.2,3.8c2,1.3,8.3,32.7,9.3,35.4
	c0.9,2.7-0.2,29.2,0.4,35.7c0.6,6.5,9,42.9,9,42.9s-0.2,14.4-1.6,15.1c-1.4,0.7-1.7,4.3-1.7,4.3l5.9,3.2l6.7,1.8l7.9-1.8l9-1.7
	L222.2,484.2z"/>
<path class="st1" d="M296.2,21.7c1.8-0.5,18.4-13.6,18.4-13.6l14.1-6.4h16.5l13,4.9c0,0,10.6,4.9,9.6,6.2c-1,1.3-0.6,25.2-0.6,25.2
	s-23.3,15-24.7,15.3c-1.4,0.3-15.5,1.2-15.5,1.2l-11-2L305.9,50l-14.8-13.9l-1.3-3.9l1.1-4.2c0,0,4.9-9.8,5.1-8.1L296.2,21.7z"/>
<path class="st3" d="M329.1,6.9c-0.4,0.4,0,0.5,0,0.9c-1.3,0.5-2,1.6-3.8,1.7c-0.6-0.9-1.8-1.4-2.5-2.3
	C324.4,6.5,327.3,6.2,329.1,6.9"/>
<path class="st3" d="M308.7,34.7c-1.4,2.6-6.6,1.4-7-1.3C304.3,32.8,306.4,34.4,308.7,34.7"/>
<path class="st3" d="M309.9,56.8c-0.4,0.6-0.6,0.5-0.6,1.1c-1.3,0.6-3,0.6-3.6,1.9c-0.5-0.4-0.4-0.3-1.1-0.2
	c-0.9-0.9-1.2-2.4-2.5-2.8c-1.5,0.2-1.6,1.8-2.8,2.3c-0.1-2.9-2.6-3.5-2.3-6.8c4.6-0.5,7.2,2.6,11.7,2.8
	C309,55.8,309.6,56.2,309.9,56.8"/>
<path class="st3" d="M334.4,61.4c-1.5,1.8-3.6,2.6-6.1,4c-1.1,0.6-2,1.3-2.8,1.3c-1.9,0.1-2.8-1.7-4.5-1.9c-3.3-0.4-4.7,4-8.3,2.3
	c-0.8-3.3-0.6-8.6-1.3-11.3c3,0.7,6-1.1,8.7-0.2c1.1,0.4,1.8,1.9,3,2.3c2.3,0.7,5,0.4,7.4,1.3C332,59.7,332.8,60.9,334.4,61.4"/>
<path class="st3" d="M296.2,59.5c2.8,0,2.1,11-0.9,7.8C295.5,64.5,295.5,61.7,296.2,59.5"/>
<path class="st3" d="M305.9,61.4c0.3,2.9-2.5,2.4-3.8,1.3C302.1,60.7,304.3,60.9,305.9,61.4"/>
<path class="st3" d="M307.4,65.9c0.1,3.8-0.3,6.5,1.5,9.6c0.9,1.5,2.1,2.9,2.8,4.5c0.8,1.9,1.1,3.9,1.7,5.5c0.3,0.7,1.2,1.7,0.9,2.7
	c-0.6,0.2-1.9-0.2-2.8-0.2c-1.7-2.8-4-4.9-7.2-6.2c-2.6-3.7-4.5-8.2-5.5-13.6c0.5-0.2,1.2-0.2,1.9-0.2c1-1.2,1.2-1.9,2.6-2.1
	c0.8-0.1,1.3,0.6,2.1,0.6C306.2,66.5,306.8,65.4,307.4,65.9"/>
<path class="st3" d="M296.6,72.3c0.6-0.1,0.4,0.5,0.9,0.4c1,3.9,3.4,6.5,5.3,9.5c-1,0.8-2.6,1-4.2,1.3c-1-1.4-2.6-2.8-2.8-4.7
	C295.6,76.6,297.6,74.6,296.6,72.3"/>
<path class="st3" d="M292.8,79.7c0,0.3-0.1,0.7,0.2,0.8c-0.5,1-1.7,1.3-2.8,1.7c-0.6-0.5-1.2-1-1.3-2.1
	C290,79.8,291.5,79.2,292.8,79.7"/>
<path class="st3" d="M315.9,101.5c-1.4,1.1-3.5,0-4.9-0.6c-1.5-0.7-3-1.6-4.2-2.3c-8.3-0.6-13.2,3.9-20.2,4.5
	c0.3-1.3,2.2-1.5,3.6-2.3c3.5-1.8,9.2-4.4,13.4-5.1c1-0.2,2.5,0.8,4,0.9c2.9,0.3,3.4,0.8,5.5,2.3
	C314.2,99.8,315.6,100.5,315.9,101.5"/>
<path class="st3" d="M359,113.6c-0.2,2.3-0.6,4.5-0.8,6.8c-1.5,0.3-2.4,0.4-4,0.2c0.9-2.6,1.9-5,3.2-7.2l0.7,0.3L359,113.6z"/>
<path class="st3" d="M282.2,105.3c-0.5,1.3-1.8,1.4-2.6,2.5c-0.9,1.1-1.3,2.6-2.5,3.6c-1.1,0.9-3.1,1.7-4.7,2.6
	c-2.7,1.6-5.4,3.2-9.5,2.8c2-1.8,4.7-2.7,7-4c3.6-2,6.8-4.6,9.6-7.4C280.5,105.4,281.4,104.7,282.2,105.3"/>
<path class="st3" d="M334.6,109.8c1.4,0.5,2.6,1.2,3.6,2.1c0.1,1.6,0,2.6-0.2,3.4c-2.3-0.8-3.1-3-4.3-4.7l0.7-0.1L334.6,109.8z"/>
<path class="st3" d="M372.5,107.5c0.6,1.5-0.3,2.9-0.9,3.8C370.2,110.7,370.3,106.6,372.5,107.5"/>
<path class="st3" d="M298.1,111.5c4.1,2.6,3.5,10.4,4.2,16.8c0.4,3.9,2.4,7.5,1.5,10.2c-1.6-0.2-2.1-2-2.8-3
	c-1.6-2.2-3.2-4.1-5.3-5.9C296.5,123.5,298.6,118.4,298.1,111.5"/>
<path class="st3" d="M305.3,111.5c3.3,2.8,6,6.1,6.8,11.3c-1.6-0.6-3-2.5-4.4-4.3C306.3,116.4,304.6,114,305.3,111.5"/>
<path class="st3" d="M236.1,114.5c0.8,2.4-2.4,2.7-3.4,3.6c-1.8-1.3-3.9-2.3-5.7-3.6C230.5,114.8,233.2,113.7,236.1,114.5"/>
<path class="st3" d="M332,117.2c1.5,1.5,1.8,4.1,1.9,7c0.9-0.1,0.4-1.6,1.3-1.7c0.4,2.4-0.2,5-0.9,6.8c-0.3,0.2-1.4-0.2-1.5,0.2
	C332,125.7,331.3,121.2,332,117.2"/>
<path class="st3" d="M257.7,118.3c-1.2,2.2-3,3.9-5.7,4.5c0.2-0.6-0.5-0.4-0.6-0.8C252.3,119.8,255.2,117.8,257.7,118.3"/>
<path class="st3" d="M290.9,117.9c0.2,0.1,0.3,0.3,0.6,0.4c0.1,5.5-1.9,9-2.5,13.8c0.4,1,0.4,3.3-0.8,3.8c0,0.3,0.6,0.1,0.6,0.4
	c-0.7,1.8-2,0.2-2.1-1.3c-1.4-2.2-2.6-4.6-3.8-7c1.7-0.1,2.9,2,4,3.2c0.3-4.2,0.7-8.3,0.8-12.7c1.3,0.3,1.3,1.9,1.5,3.2
	C290.2,120.8,290.5,119.3,290.9,117.9"/>
<path class="st3" d="M269.4,135.5c-7.4-0.6-11.7-4.4-17-7c7-0.2,11.4,4,17.4,5.5l-0.5,0.7L269.4,135.5z"/>
<path class="st3" d="M326.5,145c-0.3-0.5-0.6-1.1-0.9-1.5c1.1-2.9-0.2-5.8-1.3-7.9c0.3-0.1,0.5-0.3,0.6-0.6
	C330.8,134.9,331.2,142.9,326.5,145"/>
<path class="st3" d="M263.9,140.4c-1.4,1.4-4.5,1.5-7.4,1.5c-4.9,0-12.4-0.3-16.6,0.2c-3,0.4-3.7,2.8-5.7,4.3
	c-0.9,0-1.7-0.1-2.3-0.4c-1.1,1.2-3.7-0.1-4.5,1.5c-2.3-0.5-4-0.4-6.1,0.4c0-1.2,0.9-1.6,1.1-2.6c3.7-2.1,6.6-5,10.2-7.2
	c2.9,0.4,4.4-0.6,6.1-1.5c3.1-0.1,7.2-0.9,11.3-0.6c2.5,0.2,5.3,0.9,7.8,1.3C260.3,137.9,262.8,138.9,263.9,140.4"/>
<path class="st3" d="M300,140.2c1.7,0.7,2.7,2.2,5.5,1.9c2.6,2.8,3.4,10.5,2.3,14.2c-3.2-2.6-2.7-8.1-5.1-11.3
	c-1.2-1.5-2.8-1.9-4-3.4l0.8-0.6L300,140.2z"/>
<path class="st3" d="M253.3,148.8c2.1,1.3,5.7-0.5,8.7,0.6c2.8,1,3.9,3.1,4.9,6.2c-1.9,0-3.8-1.7-6.2-1.7c-2,0-3.5,1.1-5.5,1.3
	c-1.2-1.7-1.6-4-3-5.5l0.7-0.3L253.3,148.8z"/>
<path class="st3" d="M289.2,150.6c1.2,1.7,1.8,5.2,0.9,7.8c-1.6-0.8-2.7-2.1-3.2-4c-3.2-4.9-11.4-4.7-17.6-6.6
	C276.4,144.4,283.4,148.9,289.2,150.6"/>
<path class="st3" d="M242.7,152.7c0.7-0.2,0.9,0.4,1.3,0c-0.6-0.9-1.6-1.3-1.9-2.5c4.3,1.6,8.1,3.9,10.8,7.2c-4-0.5-6.3-2.6-10-3.4
	l-0.1-0.7L242.7,152.7z"/>
<path class="st3" d="M290.9,189c-1.1,0-1.4-0.6-2.3-0.8c0.3,2.1,2.1,4.3,3.2,6.2c-2-1-4.3-2-5.9-3.6c-1.2-1.2-1.3-3.3-2.1-5.5
	c-1.5-4.5-3.2-10.2-4-14.8c-0.3-1.7-0.3-3.1-1.1-4.3c-2.3-3.5-5.5-4.4-7.2-7.9c4.4,1.9,9.9,4.3,15.3,5.9c1.4,4.5,2.2,9.6,3.2,14.6
	c2.1,1.9,4.7,3.2,5.9,6.1c-2.7,0.9-5.2-1.5-7.6-2.3c0.3,2.4,1.8,3.6,3.2,4.9l-0.8,0.6v0.9H290.9z"/>
<path class="st3" d="M237.2,159.2c3.1,0.8,7.3,1.3,8.3,3.6c-3.6,1.6-6.3-0.8-8.7-2.1l0.5-0.7L237.2,159.2z"/>
<path class="st3" d="M296.2,162.6c0.2,0,0.3,0,0.4,0.2c1.6,0.8,1.9,2.5,2.8,3.8c2,2.7,5.6,3.8,7.9,6.2c0.2,0.8-0.4,0.7-0.8,0.9
	c0.4,0.9,1,1.5,0.9,2.8c-2.1-0.4-4.3-2-6.1-3.6c-1.7-1.5-4.3-3.6-4.7-5.9C296.5,165.7,296.9,163.9,296.2,162.6"/>
<path class="st3" d="M190.7,179.2c-0.5-0.8-0.9-1.6-0.9-2.8c1.7-1.2,3.8-0.2,6.2,0c1.9,0.1,6.4-0.3,6.6,1.1c0.1,0.6-3.8,2.8-4.5,2.8
	C195.3,180.7,193.3,178.7,190.7,179.2"/>
<path class="st3" d="M184.5,176.7c0.5,0.6,0.8-0.1,1.9,0.2c0.6,1.3,0.1,3.7,0.6,5.1c2.6,0.8,6.8-0.9,8.7,0.8
	c-1.8,3.4-6.3,2.9-11.2,2.8C184.3,182.9,183.8,179.1,184.5,176.7"/>
<path class="st3" d="M221.7,187.5c0.2,0,0.2,0.1,0.2,0.2c3.3,0.7,4.8,2.9,6.8,5.7c1.6,2.3,2.7,3.5,2.6,5.9
	C225.4,198.1,224.1,192.3,221.7,187.5"/>
<path class="st3" d="M231.7,191.1c3.3,1.1,5.6,3.2,5.7,7C234.9,196.4,232.7,194.4,231.7,191.1"/>
<path class="st3" d="M315.3,204.9c1.9,1,6.4,6,3.6,9.1c-0.3,0.3-1.2-0.2-1.1,0.8c-2.4-1-4.2-2.6-5.7-4.5c1.9-0.2,3,0.6,4.5,0.8
	c-0.4-1.3-2.3-2.7-2.6-4.7l0.6-0.7L315.3,204.9z"/>
<path class="st3" d="M293.4,204c4.1,1.6,9,2.3,10.6,6.4c-2.3,0.3-4.8-0.8-6.6-2.1C295.7,207.2,294.4,205.4,293.4,204"/>
<path class="st3" d="M291.5,214.6c5.7-0.3,10.4,0.7,14.6,1.9c1.8,0.5,3.8,0.9,5.1,2.1c-2.4,1.3-5.5,2.3-8.5,1.3
	c-1.2-0.4-2.1-1.4-3.4-1.9c-2.5-0.9-5.2-0.9-7.6-1.7l-0.1-0.9L291.5,214.6z"/>
<path class="st3" d="M267.5,217.8c0-0.2,0.1-0.2,0.2-0.2c5,0.1,9.1,2.3,13.6,3.4c1.2,0.3,3.2-0.1,3.6,1.5c-0.9,0.9-3.6,0.7-4.7,0.6
	C275.3,222.6,271.3,219.2,267.5,217.8"/>
<path class="st3" d="M282.2,226.5c6.2,0.7,11-4.1,16.5-1.5c-4.5,2.3-8.9,4.8-15.5,4.9l0.1-0.6l-0.3-0.5c0.6-0.6-0.8-0.3-0.9-0.8
	l0.3-0.7L282.2,226.5z"/>
<path class="st3" d="M263.3,236.1c1.2,0.9,3.7,1.5,3.8,2.8c-0.5,1-2.1,0.7-3,0.6c-2.2-0.2-5-1.1-6.4-1.9c1.7-0.2,3.5,0.2,4.4-0.4
	l0.8-0.4L263.3,236.1z"/>
<path class="st3" d="M235.3,249.7c3.1,2.2,8.2,2.4,11.7,4.2c-3,1.2-5.7,3.1-9.8,2.5c-3.1-0.5-5.3-3.2-7.2-4.7
	c2.2-0.5,5.3,1.3,7.9,1.7C237.9,252.1,235.8,251.3,235.3,249.7"/>
<path class="st3" d="M248.8,265.3c1.2,2.3,0.6,5.7,0.9,8.7c0.3,2.4,0.9,4.8,1.7,6.8c0.8,2,2.5,3.8,1.9,6.1c-1.3-0.3-2.7-1.6-3.6-2.8
	c-1.2-1.6-2.5-4.5-3.4-7c-1.5-4-2.8-8-1.1-11.5C246,265.7,247.3,265,248.8,265.3"/>
<path class="st3" d="M207.4,292.1c1.2,1.3,4.4,1.8,5.7,3.4c1.1,1.5,1.6,8.7,1.9,11.5c0.9,8.9,2.3,15.8,4.4,23.3
	c1.4,5.3,3.5,10.7,1.7,16.3c-3.1,0-10.1-0.6-11.5-3.6c-1.1-2.3-0.3-6.9-0.6-10.2c-0.4-5.9,0.3-9.6,0-15.1c-0.2-3.4-0.9-6.4-1.3-9.5
	c-0.5-3.2-0.1-6,0.2-9.3c0.2-2.1,0-4.2-0.4-6.2L207.4,292.1L207.4,292.1z"/>
<path class="st3" d="M172.4,319.3c1.1,2.6,0.7,5.5,0.9,8.5c0.5,5.6,3.5,10.8,0.6,15.5c-0.7-0.1-1.4-0.3-2.3-0.2
	c-2.9-3.1-0.7-8.1-0.4-13.2c0.2-3.6-0.4-6.9-0.4-10.4l0.8,0.1L172.4,319.3z"/>
<path class="st3" d="M237.4,357.5c3,2.6,1.4,7.6,1.9,12.3c0.3,3.2,1.9,6.2,2.3,8.7c-3.4,0.7-3.3-2.3-3.6-4.5
	c-0.6-4.1-1.3-7.8-2.8-10.8c-3.2-2.6-9.7-2.8-11.9-5.7c0-0.2,0-0.3,0.2-0.4C226.3,356.5,233.5,358.5,237.4,357.5"/>
<path class="st3" d="M245.9,384c-1.9,0.9-4.2,2.4-6.1,2.6c0.5-1.3,1.4-2.2,2.6-2.8c-1.5-0.5-3.2,0.4-4.7,0.4
	c0.6-2.3,3.3-2.5,4.9-3.8C244.3,381.1,245.2,382.5,245.9,384"/>
<path class="st3" d="M337.5,482.7c1.6-0.4,4.8,2.8,5.1,4.2c0.1,0.6-0.4,0.6-0.4,1.3c0,0.3,0.5,0.8,0.6,1.1c0.8,3.7-2.5,7.6-4.2,9.8
	c-2.9-3.5,1.1-7.8,1.1-11.9C338.9,485.8,338.3,484.2,337.5,482.7"/>
<path class="st3" d="M181.4,511.7h0.6c-0.1-0.6-2.5-1.5-2.3-2.5c2.6,0,4.3,1,5.9,2.1c4.4-0.2,11.7-1.4,12.1,2.8
	c-1.8,0.2-3.1-0.9-5.1-1.1c-3.7-0.4-7.9,1.3-11.3,0l0.3-0.6L181.4,511.7z"/>
<path class="st3" d="M328.4,525.1c0.1,2.1-1.2,5.9-2.6,5.1c-1.5-0.8,0.6-4,1.1-5.5l0.7,0.5L328.4,525.1z"/>
<path class="st3" d="M201.9,516.8c1.6,0.5,2.9,1.4,4.9,1.5c0.7,0.9,1.3,2,1.9,3c1.4-0.3,1.7,0,2.6,0.6
	C208.2,526.4,198.7,522.9,201.9,516.8"/>
<path class="st3" d="M287.7,33.2c1,0,1.2-0.8,2.1-0.9c0-3.9,1.1-6.6,3.6-7.9c0.4-3.1,3.1-4.6,5.5-6.6c4.5-3.7,10.2-6.6,14.8-10.6
	c1-0.9,1.7-2.2,2.7-2.8c4.5-3.2,15.1-5.2,23.3-4c2.9,0.4,5.7,1.3,8.5,1.9c5.1,1,10.2,1.3,14.6,2.5c1,0.3,4,1.1,4.9,1.7
	c2.7,1.9,2.1,5.6,1.9,9.8c-0.1,3.2,0.2,6.6,0,10c-0.1,3.2-1.3,6.3-1.3,8.9c0,2.9,2.1,4.8,1.7,7.8c0.5,0.4,1.3,0.5,2.1,0.6
	c-0.2,0.7-1.7,0.2-1.9,0.9c0.4,2,2.5,2.3,2.8,4.3c-1-0.5-1.7-1.2-2.7-1.7c0.3,1.3,1.2,1.9,1.5,3.2c-0.2,0.7-1.1,0.5-1.9,0.6
	c1,3-0.9,5.7-2.1,7.8c-0.6-0.8-0.5,1-2,0.7c0.1,1.1,0.6,0.2,1.7,0.4l-0.1,0.8l0.7,0.4c0.2,0.4,0.6,0.6,0.6,1.1
	c-0.9-0.6-1.3,0.5-2.5,0.2c-1,1.9-1.3,3.7-3,5.3c-0.7,0.6-1.9,0.8-2.6,1.5s-1,2-1.7,3c-0.6,0.9-1.7,1.5-2.3,2.3
	c-1.1,1.4-1.5,3.2-2.8,4.2c-1.6,1.1-3.9,0.6-4.9,2.5c0.5,0.5,1.2-0.5,2.1-0.2l-0.4,0.7l0.5,0.8c-1.3,0.6-2.3,1.4-3.2,2.3l-0.8-0.5
	l-0.9,0.1c0-1.2,0.3-2,0.6-2.8c-1.1,0.5-2.8,2.2-4.7,2.3c-1.7,0-4-1.6-6.1-1.9c-2.5-0.4-6,0.7-7.6-0.4c-0.7-0.5-0.7-1.7-1.1-2.5
	c-0.9-1.3-3.6-2.4-3-4c3.7,0.3,6.4,4.9,10.2,2.6c1.9,0.8,4.3,2.1,7.2,1.3c0.7-0.8,0.2-2.8,0.9-3.6c2.8-0.1,4.4,1.6,7,1.1
	c3.4-0.7,6.8-4.9,7.6-7.9c-4,0.3-7.4-0.7-10.6-2.3c-0.8-0.4-2.2-1.3-2.6-1.7c-0.7-0.7-0.9-1.7-1.7-2.3c-0.6-0.4-1.6-0.5-2.5-0.9
	c-1.6-0.9-3.7-2.9-5.7-3.6c-1.4-0.5-3.1-0.3-4.5-0.8c-1.5-0.5-2.7-2-5.1-1.5c0-1.4-1.8-1-2.6-1.5l0.6-0.8v-0.9
	c18.8-1.5,31.7-8.8,43.3-17.4c1.2-4-0.6-8.4-0.2-13c0.3-3.2,2.9-8.6,0.4-11.5c0.1,0.1-0.1,0.2-0.2,0.2L365,10l-0.9,0.1V8.6
	c-2.5-2.3-6.6-1.6-10.2-2.1c-8.4-1-19.5-5.9-29.5-2.3c-1.8,0.6-3.4,2-5.7,2.6c-0.8,1.5-2.3,2.2-3.2,4.2c-0.9,2-0.5,4.5-1.3,6.6
	c-0.4,1-1.3,1.7-1.7,2.6c-1.5,3.6-1.3,8.3,1.5,10c-4.2,1.4-5.8-1.2-5.3-5.5c0.1-0.8,0.6-1.5,0.8-2.3c0.4-2,0.3-4,0.9-5.9
	c0.8-2.4,2.3-3.9,2.5-6.8c-2.9,2-4,5.8-5.1,9.6l-0.7-0.1l-0.7-0.1c0.1-0.4,0-0.7-0.4-0.8c-1.2,2.4-3,4.6-4,7.8
	c-0.4,1.4-0.2,3.4-1.5,4.3c-1.4-1.6-1.5-5.4-4-5.5c-1.8-0.1-4.5,3.3-4,6.1c0.4,2,2.9,3.7,4.2,4.7c1.5,1.2,3.7,2.8,6.1,2.8
	c3.1,0.1,6.4-2.1,9.1-3.2c2.9-1.2,5.4-2.8,8.1-4.2c5.2-2.6,9.9-4.3,15.1-6.6v0.9l0.6,0.8c-4.8,1.8-9.5,5.4-14.2,7.6
	c-1.7,0.8-3.6,1.1-5.3,1.9c-0.9,0.4-4.2,2.1-4.3,2.8c-0.2,1.2,2.4,3.4,3.6,4.2c3.7,2.2,10,1.1,10.8,6.1c-3.5,0.4-7.1,0.4-10.4,0.2
	c-2.1-0.1-3.7-1.3-5.5-0.4c1,1.5,2.8,2.3,4.7,2.8l-0.6,0.8v0.9c-4.5-0.2-8.6-0.2-12.1-1.5c-0.7-0.3-1.2-0.9-1.9-1.1
	c-2.3-0.8-2.4-0.7-3.2-3.2c-1.9-5.7-6.9-8.9-10.6-13.1l0.7-0.5L287.7,33.2z"/>
<path class="st3" d="M354.4,80.7l-0.1-0.8c0.4-0.4,0.4-1.1,1.1-1.1l0.2,0.8l0.9-0.1c0.8,1.1,0.2,3-0.8,3.4c-0.8-0.2-1.1-1.1-1.7-1.5
	L354.4,80.7z"/>
<path class="st3" d="M360.8,76.5l-0.5-0.6c1.3-1.5,3-2.7,5.5-3v0.9l0.4,0.8c-0.9,1.2-2.8,1.6-3.4,3.2c-0.2,0.6,0.1,1.3,0,1.9
	c-0.2,0.9-1.9,2-2.3,3.2c-0.3,0.9,0,1.6-0.2,2.1c-0.6,1.4-2.6,2.5-4.2,2.8c-0.9,1.5-1.5,3.3-2.8,4.3l-0.7-0.6l-0.9-0.2
	c0.5-1.3,1.1-2.6,1.5-4c2.6-1.9,5.5-5.9,7.2-9.1c0.1-0.2,0.5-1,0.2-1.1L360.8,76.5z"/>
<path class="st3" d="M373.8,70.8l-0.6-0.8c0.9-0.4,1.9-0.7,3.2-0.8l0.3,0.8h0.8c-0.1,0.8-0.3,1.6-0.6,2.3c0.4,0.5,0.4-0.3,0.9-0.2
	l0.5,0.8l0.9,0.2c-0.7,1.3-1.3,2.6-2.1,3.8l-0.7-0.6l-0.8,0.4c-1-1.2-0.4-4.1-1.9-4.9v-1H373.8z"/>
<path class="st3" d="M395.8,73.4l0.3-0.9c0.8-0.5,0.6-1.8,1.7-1.5c0.2,0.8,0.5,1.7,0.4,2.8c0.8,0,1-0.5,1.5-0.8l0.5,0.7l0.6,0.6
	c-1.3,1-0.7,3.2,0.8,3.4l-0.7,0.5l-0.1,0.8c-2-0.9-4.6-0.1-6.1-1.7c0-1.8,0.2-2.6,0.2-4.2L395.8,73.4z"/>
<path class="st3" d="M406,83.4l0.7-0.3c0.7,0.9,1.1,1.9,1.1,3.4l-0.9,0.1l0.1,0.8c-3.6,0.2-5.6-0.6-8.9,0.4c1.7,0.7,2.7,2.6,4.9,2.8
	c1.3,0.1,3.1-0.8,4.2,0.4l0.6,0.4l0.7,0.1c0.4,1.8-0.7,4.4-0.8,6.4c-0.1,1.6,0.4,4.1,0.9,4.9c0.2,2-0.4,3.1-0.9,4.4
	c0.5,0.6,1.8,0.4,2.1,1.1c0.5,0.6-0.6,0.9-0.9,1.3l-0.9-0.1l-0.3,0.9c-1.9,0.7-2.4,2.7-4.5,3.4c-3.2,1.1-7.7,1.3-10.8,2.6
	c-0.1-0.5-0.6-0.6-0.6-1.1c1.8-2.7,4.1-4.9,3.6-9.8c2.8-2.3,10.8-0.5,10.6-5.3c-3.7,3.4-12.9,1.2-17,4.2c0.9,0.3,2.4,0.1,3,0.8
	c-1.9,1-3.9,1.9-5.9,2.8c1.7,0.6,4.1,0.7,5.9,0.8c-1.9,6.7-6.5,10.6-12.9,12.9c0.4-1.6,0.9-3.2,1.3-4.7c-1.7,0.9-2.8,2.5-4.9,3
	c1.7-2.2,3.2-6.1,2.1-10c-1.1,0.8-1.2,2.5-2.3,3.2l-0.4-0.6l-0.7-0.2c2.2-5.9-3.9-10.4-8.1-7l-0.5-0.7l-0.8-0.4
	c0.8-2.7,2.7-5.9,1.1-8.3c0.9-0.3,2,0.8,2.1,0c0.9-0.3-0.7-1.1-0.2-1.5c3.7,0.1,7.6-2.1,11.5-2.5c2.6-0.3,5.1,0.6,7.4-0.6
	c-0.2-0.3,0.8-1.4,1.7-1.7l0.5,0.7l0.8-0.1c1,0.4,0.3,1.4,0,2.1c4.6,2.4,11,2.7,17.2,3v-1.9c-2.2-1.1-4.5-0.7-6.4-1.5
	s-2.8-1.9-4.5-2.3c-0.9-0.2-2.8,0.1-3.8-0.6l0.5-0.5l-0.3-0.6c2.1-3.2,9.1-1.6,12.5-3.6c-0.1-0.6,0.3-0.6,0.2-1.1L406,83.4z
	 M403.3,106.6c0.9,0.3,2.1,0.3,3.2,0.4c0.1-0.9,0.6-2.4,0.2-3.2C405.7,104.8,404.3,105.5,403.3,106.6"/>
<path class="st3" d="M408.1,115.5l0.7,0.5c-2.2,1.8-5,3.1-8.1,4c0.5,0.6,1.6,0.5,2.6,0.6v0.9l0.6,0.8c-1.4,0.5-3.1,0.8-4.7,1.1
	c-1.6,2.4-2.3,4.9-2.5,8.3c-0.6-0.6-0.7-1.7-1.1-2.5c-3.8,2.1-6.7,5-7.8,9.8c-0.4-0.8-0.1-2.3-0.2-3.4c-3.2,1.3-2.1,6.8-5.3,8.1
	c-0.1-0.8,0.7-2.1,0.6-3.6c-1.2,0.6-2.3,1.9-3.8,2.8c-1.5,0.9-3.3,1-4.9,1.9c-0.6-0.3-1.2-0.6-1.3-1.3c-0.6,0.5-0.9,1.3-0.9,2.3
	c-0.9-0.2,0-2.3-0.6-2.8c-1.7-0.6-1.5,1.3-2.1,2.3c-0.6,1.1-1.5,1.9-2.3,2.5c-0.3,1.5-1.6,1.9-2.1,3.2c-0.4-0.1-0.1-0.9-0.2-1.3
	c-1.3,1-1.9,2.7-3,3.8c0,10-2.7,17.8-7.4,24.2c-5.2,7.2-13.6,12-24.4,12.7c-0.4,1.7-0.6,3.6-1.7,4.5c0.5,3.6-1.2,5.6-1.9,8.5
	c-1.2,5.2-1,10.8-2.3,16.1c-3.8,5.6-10.6,8.2-17.2,11c-4.4,3.7-9.4,6.6-14,10.4c-1.3,1.1-2.4,2.2-3.6,3.4c-2,1.9-3.9,3.9-6.6,5.3
	c1.1,5.7,2.3,11.4,3.4,17.4c2.3,11.8,3.5,23.9,6.2,35.4c1.9,7.7,4.1,13.9,3.6,23.1c-0.2,4.3-2.3,8.7-1.5,12.7
	c0.2,1.2,2.2,4.5,3.2,5.1c4.1,2.4,7.6,6,10,8.9c1.6,4.3,1.5,9.1,2.5,13.6c1.1,5.1,2.9,10.2,4.2,15.3c2.6,10.4,4.5,21.2,7,32
	c1.3,5.4,2,10.8,3.4,15.9c0.7,2.5,2.1,4.6,2.3,7.2c0.1,1-0.1,2.2,0,3.2c0.5,4.9,2.3,10.2,3.4,15.1c1.2,5.3,1.9,10.6,2.3,16.3
	c4.1,3.2,8.9,7,12.9,11c1.9,1.9,4.5,4,4.2,7.6c-0.3,3.3-2.4,6.9-4,10c-1.6,3.3-3.2,6.6-5.1,8.9c-3.2-0.1-6.1-2.1-8.7-3.4
	c0,3.1,1.8,5.4,1.5,8.1c2.1,3.9,1.5,11.6,0,16.3c-0.2,0.7-0.9,1.4-1.1,2.1c-2.5,7.2-5.8,13.5-9.5,17c-1.9,1.8-6,0.6-7.4-0.8
	c-5.9-5.5-0.4-22.6-6.4-28c-2.6,3.5-5.6,5.9-10.2,8.3c-2.8,1.5-5.9,3.4-8.5,3.8c-6.7,1-12.7-1.8-12.7-7.9c0-4.1,1.6-8.8,3.2-12.1
	c1.7-3.6,4.5-6.2,6.1-9.3v-3.8c-1.5-0.9-3.5-1.1-5.1-1.9c-2.5-4.3-1.6-10.2-1.9-15.9c-0.2-5.4-1.1-10.8-1.3-15.9
	c-0.1-1.6,0.3-3.4,0-4.7c-0.3-1.1-2.4-3.3-3.6-4.5c-9-9.8-19.6-18.1-28.6-27.4c3.3,7.1,3.6,17.1,5.3,26.5c0.5,2.9,1.6,5.8,1.9,8.7
	c0.7,6.6-0.5,12.4-0.4,18c0,0.8,0.6,2,0.4,2.8c-0.5,1.7-5.3,2.3-7.4,2.8c-4.5,1.2-9.7,2.4-12.9-0.4c-4.1,0-6.3,2.8-9.5,4.2
	c-2.7,1.2-5.1,1.7-8.1,2.7c2.4,3.6,4.6,8,4.5,13.8c-0.1,2.9-0.7,6.4-1.5,9.5c-1.2,4.4-2.3,8.1-4.5,10.8c-1.2,0.2-2,0.9-3.4,0.9v-0.9
	l-0.6-0.8c5-1.3,4.6-7.8,6.1-13.6c0.5-1.9,1.1-3.7,1.1-5.3c0.2-5.3-2.2-11-5.7-12.3c-0.9-0.3-1.8-0.3-2.6-0.4v-0.9l-0.6-0.8
	c0.9-0.6,2.9-0.2,4-0.8c-2.2-11.2-1.6-25.3,0-37.4c0.9-6.7,2.3-13.4,2.8-20.2c0.8-11-1-21.7-1.7-32.2c-0.4-5.5-1.6-10.6-0.9-16.8
	h0.9l0.8-0.6c0.7,4.6,0.2,10.7,2.8,14.2c1.6,2.1,5,4.1,7.6,5.9c5.6,3.8,10.4,7.2,15.3,11.5c2.4,2.1,4.4,4.8,6.4,7
	c6.4,6.9,13.5,13.3,20,20.2c2.2,2.3,4.7,4.2,6.8,6.4c10.9,11.3,19.3,23.3,26.3,38.2c1,2,1.5,4.4,2.7,6.4c0.7,1.2,2,2.2,2.5,3.6
	c0.8,2.5,0,5.5,1.7,7.6c1-3.1,0.5-7.5,1.9-10.2c-1.2-1.3-1.3-3.2-2.1-4.7c-0.8-1.5-2.7-2.6-2.1-4.5c1.7,0.7,4.4,1.4,6.2,1.3
	c-0.3-3.9,0.3-7.8,0.9-11.5c0.4-2,0.6-4.1,1.1-5.5c0.3-0.8,1.3-2.3,2.1-3.4c0.4-0.6,0.8-0.8,0.8-0.9c0-0.2-1.7-1.9-2.3-2.6
	c-4.7-6.5-9.1-13.9-12.9-20.8c-4.6-8.5-9.4-16.4-13.8-24.6c-4.6-8.5-9.9-16-16.5-22.1c-6.7-6.2-14.4-11.4-22.9-15.5
	c-1-1.7-3.1-3.2-3.8-5.5c-0.4-1.3-0.5-3.6-0.8-5.7c-0.6-4.8-0.6-11-0.2-16.1c-7.2-0.8-13,1.1-18.9,0.6c-4.5-0.4-8.3-2.8-12.5-3.6
	c-2.7-0.5-6.1-0.6-9.3-0.9c-7.4-0.7-13.7-0.7-20.2,0.8c0.7,0.2,1.3,0.3,1.7,0.8l-0.6,0.8v0.9c-3.4-0.9-5.9-2.7-10.6-2.3
	c-0.6,0.5-1.2,0.9-1.7,1.5c1.8,0.2,3.2,1.6,5.3,1.9c1.4,0.2,2.9-0.2,4.4,0c2.3,0.3,4.4,1.9,6.2,2.3l-0.6,0.8v0.9
	c-3.5-0.1-6.4-1.5-9.5-2.3c-1.7-0.4-3.7-0.4-5.5-0.9c-3.1-1-5.1-4.2-7.8-5.1c-2.4-0.8-5.2-0.3-7.8-0.6c-3-0.3-5.7-2.3-8.9-2.6
	c-2-0.2-4.1,0.1-6.1-0.4c2,3.8,7.6,4.3,12.1,6.1c3,1.2,6,2.5,8.7,3c2.5,0.4,5,0.1,7,1.1c2.6,1.4,3.4,6.4,4.4,10.2
	c0.6,2.2,1.6,4.2,2.1,6.4c1.5,6.6,3.2,13.7,4.3,20.8c1.5,9.5,0.1,20,0.9,31.8c0.8,10.2,2.6,19.9,4.7,28.9c1.4,6.1,2.6,14,4,21.2
	c0.5,2.5,1.5,5,1.3,7c-0.3,3.3-3.4,5.2-4.5,7.8l-0.7,0.5l-0.5,0.7c-1-0.6-2.6-0.5-4-0.8c-4.1,0.8-8.2,1.4-9.1,5.5
	c-0.7,3.1,0.9,6.9,1.3,10.4h-0.9l-0.8,0.6c-1.9-5.1-3.8-12,0-15.5c2.4-2.2,5.8-4.2,10.2-2.6c-1.6-5.2,0-12.9,5.1-13.8
	c-3.3-15.2-8.8-31.3-9.6-49.5c-0.4-8.2,0.4-16.4-0.2-25.5c-0.4-6.2-2.4-12.7-3.6-19.1c-0.6-3.4-1-6.7-1.7-9.6s-2.3-5.4-3.2-7.9
	c-0.4-1.2-0.4-2.3-1.1-2.8c-0.7-0.5-2.8-0.7-4.2-1.1c-1.6-0.5-3.1-1.1-4.2-1.5c-5.9-2.2-10.6-5.1-17.6-6.2c-0.9-1.8-2.4-2.6-4-4
	c-0.7-0.6-0.9-1.4-1.5-1.7c-1.7-0.9-4.2-0.3-5.3-2.3c1.2-6.6,2.7-13.1,4.5-19.3c1.9-6.3,3.3-12.6,5.1-18.7
	c3.7-12.3,7.3-24.4,11-36.5c3.6-11.8,10-21.5,14.9-32.7c2.5-5.6,5.1-10.8,6.4-17.4c0.7-3.3,1.3-6.5,2.1-9.8c1-4.6,1.4-9.7,3-13.8
	c-1.3-1.8-2.2-3.5-2.5-6.1c-0.5-5.9,4.4-9,5.9-13.2c-0.5-0.7-0.9-1.4-1.5-1.9c-0.4-5-1.1-10.4-1.5-15.5c-0.3-3.7,0.6-6.9-0.9-9.5
	c-1-1.6-2.5-3.4-4-5.5c-4-5.9-13.3-9.7-12.1-19.9c0.3-2.1,1.5-3.8,1.9-5.9c0.8-4.1,0.3-8.6,1.7-13.2c1.2-0.9,1.8-2.4,3.6-2.6
	c3.1,2.3,6.5,0.8,11.2,0.2c3.7-0.5,7.3-0.2,10.8-0.8c-3.6-2.6-9.2-3.7-13.8-3c2.1-3.2,6.6-2.5,11-2.5c4.3,0.1,9-0.9,12.7,0.4
	c-4.3-3.6-11.6-5.5-20.2-4.9c-0.2-2,1.6-3.3,2.8-4.5c3.6-3.8,7.8-7.1,11.5-11.2c3.4-3.6,6.8-8,11.2-11.5c1.2-1,4-2.7,4.9-2.6
	c2,0.1,4.4,3.8,6.8,3.2c-0.3-1.4-1.8-3.3-2.6-4.9c2.4-1.8,3.7-4.6,5.9-6.8c1.8-1.9,4.5-3.2,6.8-5.1c2.2-1.8,4.4-3.7,6.4-5.5
	c3.7-3.3,9.2-8.4,14.2-9.5c8.4-1.8,18.2,3.6,26.7,0.2l0.6,0.8l0.8,0.6c-0.3,0.6,2.3,2.1,3.2,2.8c3.2,2.7,5.6,5.6,7.8,9.6
	c2.8,5.2,5.2,10.6,5.7,17.4c0.3,4.2,0.7,7.6,0.6,11.5c-3.4-0.4-5.1-2.4-8.7-2.6c-0.4,3.4,2.5,3.6,2.5,6.6c0.3,0,0.5,0.1,0.6,0.4
	l-0.4,0.7v0.8c-2.8,0.2-7.6-0.9-10.4,0c-2.3,0.7-4.4,3-6.1,4.9c-0.6,0.7-1.7,2.5-2.6,2.8c-1.7,0.5-4.2-1.5-6.4-0.6
	c-2.9,2.2-4.3,6.3-6.6,9.5c-1.6,2.2-3.5,4.4-4.2,7.6c1.3,1,2.4,0.6,3.8,0c0.8,0.2,1.4,0.8,2.3,0.9c0.4-0.7,0.7-1.4,1.3-1.9l0.6,0.8
	h0.9c-0.7,2.2-1.6,4.3-3.8,4.7c-1.4,0.2-2.6-0.6-4.2-0.8c-2.1-0.2-3.7,0.6-5.5,0.9l-0.3-0.8l-0.7-0.5c0.8-1.9,4-0.7,5.7-0.9
	c-0.1-1.3-3.4-3.2-4.9-3c-2.5,0.3-3.2,5.1-5.3,5.9c-6.4,0.1-11.9,0.4-18.3,0.2c1.1,5.5,6.2,6.9,10.8,8.9v0.9l0.6,0.8
	c-1.5,1-4.4,1.4-4.7,3.2c-0.3,1.6,4,7.1,6.4,7.2v0.9l0.6,0.8c-2.7,0.9-4.9,2.4-7.2,3.8l-0.6-0.8H226c-2.9-0.2-6.4,1.7-8.9,1.9
	c3.3-3,7.6-5,12.3-6.6c-0.6-1.5-2.4-1.8-3-3.4c-0.6-0.6,0.3-2.4-0.4-2.5c-1.7,1.9-3.6,3.6-5.7,5.1c-1.4-2.6-5.5-2.7-6.6,0.8
	c-0.6,1.9,0.2,4.6-0.6,6.4c-5.6,0.6-14-0.3-18.7,1.5c2,0.7,4.1,1.8,6.6,2.1c1.8,0.2,3.4-0.2,5.1-0.2c4.7,0.1,7.5,2.2,10,5.3
	c0.3-0.7,0.7-1.3,1.3-1.7l0.6,0.8l0.8,0.6c0.2,1.3-0.4,1.7-0.6,2.6c2.8-0.1,5.2,0.1,7,0.9c-0.6,1.9-2.2,2.4-2.1,4.3
	c0.2,2.6,4.2,3.4,4.5,6.1c6.2,4.7,17.5,3.5,24.6,7.9c3.2,2,5.1,4.8,7.8,7.6c2.6,2.7,5,6.2,5.9,9.5c1.1,4.3,0.6,11.2-2.5,12.9
	c-0.1,1.5-1.2,2.1-1.3,3.6c-2.7,2.4-6.1,4.7-10.2,6.4c-2,0.8-4,2-5.9,2.5c-0.9,0.2-1.9,0.2-2.8,0.4c-2.2,0.6-4.4,2.2-7.4,1.1
	c-3.3-1.1-6.2-5.3-8.7-7.6l0.8-0.6l0.6-0.8c1.1,0.4,2.1-0.7,3.4-0.9c0.4-0.1,0.9,0.2,1.5,0.2c0.9-0.1,2-0.7,2.8-0.8
	c0.8,0,1.5,0.4,2.3,0.4c2.6-0.2,5.4-1.9,5.5-3.4c0.2-2-2.8-4.8-2.8-6.4c4.1,0.9,5.2,4.1,9.6,3.4c1.3-0.2,2.2-1.2,3.4-1.7
	c0.9-0.3,2.4-0.3,3.6-0.6c1.3-0.3,2-0.9,3-0.8c1.1,0.2,1.4,1.3,2.3,1.3c0.3-1.1,1-2.4,0.8-4.2c-0.2-1.9-2.1-3.8-3-5.5
	c-0.5-1-0.7-2.2-1.3-3.2c-0.7-1.2-2.2-2.6-3.2-3.8c-3.6-4.2-6.4-7.1-12.1-9.3c-2.2-0.8-4.6-1.8-6.4-2.3c-4.5-1.1-9.5-0.9-12.1-4.4
	c-0.3-0.4-0.3-1.1-0.6-1.5c-0.9-1.4-2.7-2.8-4.2-4.5c-3.5-4.2-6.4-7.2-14-5.7c-4.1,0.8-8.1,2.4-9.5,5.7c0,4.2,0.2,8.5,1.5,11.5
	c0.7,1.7,1.8,3.6,3.6,4c-1.2-3.3-4.5-10.2-2.1-14.8c2.1-0.7,6-4.4,8.1-1.5c-2.1,0.7-3.9,1.8-5.1,3.4c1.9,0.8,3.5,1.7,4.5,4
	c0.5,1,0.6,2.4,1.3,3.6c0.9,1.5,2.2,2.6,2.5,3.6c0.7,2.5-0.1,5.2,0.6,7.4c1.7,5.8,7.7,9.4,8.1,16.3l-0.8,0.4l-0.5,0.7
	c-4-6.4-7.3-13.7-12.7-18.7c0,0.6-0.4,0.7-0.8,0.9l-0.6-0.8l-0.8-0.6c0-0.6,0.5-0.6,0.4-1.3c-1.2-0.2-2.1-0.7-3.2-0.9
	c-4.4,1.5-10.2,0.1-15.1,0c-3.3,2.3-6.3,5.9-7.4,9.8c0.4-0.4,0.9-0.6,1.7-0.6c-0.1,2,0.3,3.4,0.2,5.5c1.6,0.8,7.4-1.2,7.4,0.9
	c0,0.3-2.4,1.8-2.8,1.9c-2,0.5-4.8,0.1-6.4,0c-1.2-1.4-0.7-4.6-1.1-6.8c-1.2,2.3-1.3,5.8-0.4,8.3c1.7,0.9,3.3,1.9,5.9,1.9
	c1.4,1.5,1.4,4.4,2.3,6.4c0.2-1.8,2-2.9,2.8-4.3c0.2-0.4,0.1-1,0.4-1.3c0.4-0.5,1.2-0.9,1.5-1.5c0.6-1.2,0.4-2.7,1.1-3.8
	c0.7-1.1,2.4-2.1,3.4-3c1.5-1.4,2.8-2.5,4.2-4l0.5,0.7l0.8,0.4c-1.7,3.9-5.2,6.8-7.2,10.8c-0.8,1.5-1.1,3.3-2.1,4.7
	c-0.8,1.2-2.2,2-3.2,3c-1,1.1-1.7,2.4-3,3c-2.7,5.7-7.8,10.4-10.2,16.6c-0.7,1.9-0.9,4-1.5,5.9c-3,9-8.7,16.4-12.7,24.2
	c-2.2,6.8-5.6,13.3-7.9,20.6c-2.3,7.2-3.5,14.9-5.9,22.5c-2.2,6.9-4.7,14.1-6.6,21.7c-1.4,5.5-2.1,11.8-4.4,17
	c-1.3,3-2.6,5.7-0.6,8.3c7.2,1.3,14.6,1.4,21.9,1.5c2.9,0,5.6,1.5,8.3,1.7c1,0.1,1.9-0.2,2.8-0.2c3.9,0.1,7.8,1.3,11.7,1.5
	c5.2,0.3,10.4-1.4,15.5-1.1c3.8,0.2,8.7,1.1,12.9,2.1c1.9,0.4,4,0.7,6.1,1.3c1.9,0.6,3.9,1.3,5.9,1.5c5.1,0.5,10-0.5,15.1-0.2
	c4.7,0.3,9.3,0.3,14.2,1.5L249,354l0.6,0.8c-0.1,1.9-1.1,2.8-0.9,4.9c6,0.2,10.5,1.8,15.9,2.6l-0.4,0.7v0.9
	c-5.9,0.8-11.9-1.3-16.3,0.6c0.1,0.8-0.2,1.8,0.2,2.3c5.8,0.8,12.8-0.3,19.1-0.8c8.7-0.6,17.2,0.4,23.3-3c0.2-0.8,0.8-1.2,1.1-1.9
	c-0.5-2.8-0.8-5.4-1.5-8.1c-0.6-2.4-2-4.7-2.5-7c-0.2-1.1,0-2.3-0.2-3.4c-0.4-1.7-1.1-3.2-1.5-4.9c-2.8-11.8-5.1-24.2-7.9-36.1
	c-2.4-10.1-4.4-21.2-5.7-32.2c-0.6-5.3-1.8-9.9-1.5-15.1c-2.5-0.4-5.5,0.1-7.4,0.9c0.3,1.5-0.4,2.4,0,3.8c0.3,1.2,1.5,1.9,1.7,2.8
	c0.6,3-0.2,7-0.6,10.2c-0.3,3.3-1,6.7-0.6,9.8c0.5,4.1,1.4,7.9,1.7,11.9c0.3,3.9,0.9,7.8,1.1,11.7c0.6,8.3-0.3,15.4-1.1,23.7
	l-0.8,0.9h-0.9c-0.7-11.5,0.3-21.8-0.6-31.8c-0.6-6.3-2.5-12.2-4.5-17.4c-2.1-5.4-5.2-10.7-5.7-16.3c-0.1-1.4,0.4-2.7-0.2-4
	c-5.3,0.6-8.6,3.1-11.9,5.7c-2.2,6.9-9.1,9.2-12.3,15.1c-2.4,1.1-3.1,3.9-7.2,3.2c-1,3.2-5.8,3.5-7.8,0.9c-1.8,0.9-4.5,0.2-5.3-1.1
	c1.1-4.1,3.3-9.1,0.6-12.9c-2.3,0.6-12.7,4.3-12.9,0c-0.1-1.5,1-1.4,1.5-2.6l0.7,0.6l0.8,0.4c-0.2,0.5,0.3,0.5,0.2,0.9
	c3.1-0.1,4.9-1.5,7.4-2.3c1.7-2.7,3.4-6.6,5.5-8.3c0.2,4.3-2.7,7.2-1.9,10.4c0.4,0.6,1.2,0.8,1.5,1.5c2.1-1.2,2.9,1.6,4.9,2.3
	c1.3,0.4,4.2,0.2,5.7,0c2.4-0.3,8.2-2.2,9.3-4s0.3-3.5,1.1-5.7c2.4-0.1,4.5-0.5,6.8-0.8c1.2-0.7,2-1.8,3.6-2.1
	c-0.4-0.8-1.8-0.6-2.5-1.1l0.5-0.7l-0.1-0.8c2.8,0,6.1-1.6,8.3-2.5c2.7-1,6.9-1.5,9.8-2.6c1.7-0.7,3.3-1.9,4.5-2.1
	c3.7-0.5,7.5,0.4,10.8-0.8c1-0.4,1.9-1.6,3.2-2.3c0.9-0.5,1.9-0.4,2.6-0.9c1.4-1.1,2.2-3.1,3.4-4.4c3-3.1,6.2-5,9.6-7.8
	c-5.8-0.2-11.9,2.6-18,0.8c2.7-1.6,6-1.2,9.8-2.1c2.2-0.5,4.7-1.9,7.6-2.6c5.1-1.4,10.3-3.4,15.1-5.3c3.2-1.3,7-2.9,9.1-5.1
	c4-4.2,6-10.9,4-18.9c1-1.7,3.1-3.7,3.4-6.2c0.1-1-0.3-2.1-0.2-3.2c0.3-4,3.2-9.2,2.5-13.8c-0.1,0.2-0.3,0.5-0.4,0.2
	c0.9-8.4-0.6-16.4,0-23.8c0.5-5.8,5.8-10.2,7.2-15.3c0.5-2,0.3-4,0.8-6c0.7-3,2.2-5.9,3-8.9c0.5-1.6,0.8-3.2,1.3-4.7
	c0.8-2.3,2.4-3.8,1.9-7.4c-2-3.3-5.4-5.2-8.9-7c-3-3.4-7-6.3-11.5-8.3c-2-0.9-4.3-0.7-6.4-1.7c-3.2-1.5-4.6-5.9-8.3-6.4l0.6-0.7
	l-0.4-0.8c2.5-1.3,3.4,1.5,4.9,2.3c1.2-0.4,2.5-0.6,4-0.4c1.4,1.6,1.4,5.6,4,5.3c-0.8-1.8-1.7-2.7-1.5-4.3c0.2-2.1,3.2-3.1,3-5.1
	c-0.1-1.5-2.7-3.3-3.8-4.7c-1.1-1.6-2.7-3.4-1.5-5.7c1.9,0.5,2.5,2.6,4,3.6c1.5,1.1,3.5,1.5,4.9,2.8c1.7,1.8,3.8,4.8,6.8,4.5
	c1.3-0.1,2.2-1.6,3.8-0.8c-0.2,0.9-1.2,1-1.3,2.1c0.6,1,1.3,1.8,2.1,2.6l-0.8,0.6l-0.6,0.8c-1.4-0.9-3.5-1-6.1-1.7
	c-1.8-0.5-3.3-1-4.5-0.8c-1.7,0.4-3.8,2.8-2.3,5.1c0.7,1,2.5,1.2,4.4,1.9c3.6,1.4,7.4,5.7,10.2,8.7c1,1.1,1.9,2.4,3.8,2.6
	c3.1,0.3,5.8-1.2,6.2-2.8l0.8,0.6h0.9c-0.7,1.6-0.7,3.1-1.3,4.7c-0.9,2.3-3,4.5-2.8,7c0.2,2.9,3.7,4.7,6.4,5.9
	c1.2,0.5,2.3,1.3,3,1.5c3.1,0.9,6.2-0.4,8.1-1.5c0.2-0.8,0.8-1.2,0.9-2.1l0.9,0.1l0.8-0.5c1.2-0.9,3.7-2.2,5.1-1.7
	c-0.4,1.3-1.8,1.6-2.3,2.8c2.3-0.2,3.6-1.4,5.9-1.7c0.1,1.6-0.9,4-0.6,4.5c2.1-0.4,3.2-1.7,5.1-2.3c0.1,1.6-0.1,3-0.4,4.2
	c5.3-1,9.1-3.6,12.3-6.8c0.5,0.7,0,2,0,2.8c2.7-0.9,4.6-2.6,6.4-4.4c4.5-0.5,7.4-2.5,12.1-2.8c0.1-0.2,0.2-0.4,0.6-0.4L408.1,115.5z
	 M363.9,125.3c1,3.4-0.8,5.8-1.1,8.5c-0.6,5.2,0.1,11.1-0.6,15.9c1.1-2.2,2.5-4.1,3.2-7.2c0.6-2.9,0-5.9,0.2-8.9
	c0.3-3.7,2.6-7.8-0.2-10.4C365.7,124.7,364.3,124.5,363.9,125.3 M337.8,478.6c-5.1-4.5-10.2-8.4-18.5-9.5c-1.7,0.4-4,2.5-4.9,4.7
	c-2.1,5.3-1.2,13.6-2.5,19.9c-0.8,3.6-2.8,6.8-3.2,10.4c-0.4,4.3-0.4,10.5,1.3,13.6c0.6,1.1,1.9,2,2.5,3c1.5,2.8,2.5,6.7,2.8,10.2
	c0.4,4-0.8,9,0.8,12.1c0.6,1.2,2.9,2.6,4.2,2.5c1.9-0.3,2.5-3,4-4c2.3-6.4,7.2-12.4,7.9-20.4c0.8-8.1-3.6-13-4-20.2
	c3.7-0.1,6.4,2.2,9.6,3.2c5.3-3.2,6.8-10.2,8.9-16.6C344,484.5,341,481.4,337.8,478.6"/>
<path class="st3" d="M204.3,527.9v0.9c-2.8-0.5-5.1-0.3-6.6-1.7c-2.5-2.3-1.4-8.1-4.5-9.8c-1.1-0.6-2.3-0.5-4.2-0.8v-0.9l-0.6-0.4
	c3.5-1.2,6.4,0.1,8.3,1.5c1,5.2,2.7,9.6,8.1,10.4L204.3,527.9z"/>
<path class="st3" d="M185.2,516.2l0.6,0.8c-4.7,1.5-10.4-0.1-12.1-3.4l0.8-0.6l0.6-0.8c2.6,1.8,5.4,3.4,10.2,3v1H185.2z"/>
<path class="st3" d="M280.4,32.8l-0.6-0.8c0.2-0.4,1.2-0.1,1.7-0.2l-0.1,1.1l0.9,0.6l-0.8-0.1l-0.5,0.7c-0.2-0.2-0.5-0.1-0.6-0.4
	V32.8z"/>
<path class="st3" d="M378.5,82.7c-0.3-0.4-0.9-0.6-1.3-0.9l0.3-0.8l-0.1-0.9c2.3-0.3,2.9-3.2,5.3-2.6c0.4-0.7,1.6-2,2.5-1.1
	c0.1,1.1-1.3,0.8-1.3,1.9c0.2,1.7,1.7,3.1,1.5,4.5c-1.4-1.1-4-1.5-5.3-0.4l-0.9-0.2L378.5,82.7z"/>
<path class="st3" d="M363.6,113.5l-0.8,0.5c-0.4-1.2,0.4-2.9,0.6-4.2l0.9,0.1l0.8-0.3c1.4-0.9,1.6-2.9,4-2.8
	c0.4,3.9-1.5,6.4-4.7,7.2L363.6,113.5z"/>
<path class="st3" d="M291.7,41.7c1,1.4,3.4,3.1,3.8,5.3c0.1,0.6,0.3,2.5-0.6,3c-2.2-1.8-2.9-5.2-4.7-7.4l0.9-0.2L291.7,41.7z"/>
<path class="st3" d="M289.3,85.6l0.7-0.5c0.4,0.5,0.4,2.2-0.4,2.3l-0.6-0.8h-0.9c0-0.6,0.1-1,0.4-1.3L289.3,85.6z"/>
<path class="st3" d="M279,88l0.8,0.6c-1.9,1.1-3.6,2.4-5.9,3.2c-0.1,0.5,0.3,0.4,0.2,0.9l-0.8,0.4l-0.5,0.7
	c-0.8-0.5-1.3-1.3-1.7-2.3c0.6-1.2,2.1-1.5,3.2-2.3c1.4-1,2.3-2.3,4.7-2.3L279,88L279,88z"/>
<path class="st3" d="M278.7,101.1l-0.8-0.6c1.8-3.2,6.8-3.3,10.2-4.9c0.9-1.6,2.1-3.7,3.8-5.9c1.2-1.6,3.3-4.6,4.9-4.7
	c1.5-0.1,2.2,1.5,4,1.3l-0.1,0.7l0.5,0.5c-0.1,0.4-0.8,0-0.8,0.6c0.4,0.3,1.2,0.1,1.9,0.2v0.9l0.6,0.8c-1.1,0.4-2.3,0.8-3.6,1
	c-3,1.8-5.4,4.5-8.7,6.4c-3.4,2-7.7,2.5-11.3,4.5L278.7,101.1z"/>
<path class="st3" d="M394.4,82.6l-0.9-0.2c0.6-0.6,0.1-1.6,0.4-2.3c3.3-0.3,7.5,0.1,8.5,2.6c-2.2-0.1-5.5,1.9-8.1,0.8L394.4,82.6z"
	/>
<path class="st3" d="M261.8,100.1l-0.8-0.6c0.2-1.1,0.8-1.9,1.3-2.6c-0.5-0.3-1.1-0.4-0.9-1.3c1.3,0,2.2-0.4,2.6-1.3
	c2.8,0.1,3.7,2.2,5.3,3.6l-0.8,0.6l-0.6,0.8c-2.5-2-4,0.3-5.7,1.7L261.8,100.1z"/>
<path class="st3" d="M270.2,106.3l0.9,0.3c-7.7,6.2-18.5,9.4-25.7,16.1l-0.6-0.8h-0.9c-1.2-1.7-4.9-1-6.1-2.8v-0.9l-0.8-0.4
	c1.3-1.2,1.6-3.5,3.8-3.8l0.2,0.9l0.9,0.2c0.1,1.1-1.9,1-1.3,2.1c1.1,0.3,2.2-1.7,3.4-2.6c1.2-0.9,2.9-2.2,4.4-2.5
	c3-0.5,6,0.7,8.9,0.2c5.7-0.9,5.6-7.7,12.5-6.8L270.2,106.3z"/>
<path class="st3" d="M243.3,125.5h0.9c0.2,0.5-0.3,0.5-0.2,0.9c1.4-0.3,3-1.3,4.5-0.8c-0.5,2.9-3.5,3.1-5.5,4.3
	c-1.3,0.8-2,2.4-3.6,2.5v-0.8l-0.8-0.3c1-2.4,2.3-4.5,3.8-6.4L243.3,125.5z"/>
<path class="st3" d="M255.4,354.6l-0.4-0.8c2.4-0.1,6,0.3,8.5,0.8c1.3-2.9-0.6-5.6-0.2-8.5c0.1-0.7,0.8-1.2,0.9-2.1
	c0.3-1.7-0.2-3.6-0.2-5.5h0.9l0.8-0.6c1,3.2,0.1,6.7,0.4,10c0.1,1.2,0.7,2.3,0.8,3.4c0,2.1-0.8,4.3-1.7,5.9
	c-3.8,1.3-8.3,0.1-10.4-1.9L255.4,354.6z"/>
<path class="st3" d="M210.9,256l-0.8-0.6c2.1-2.6,4.8-3.6,5.1-7.2c0.2-2.1-1.1-4.3-0.8-6.8c1.1-7.9,11.7-7.3,18.2-9.8
	c7-2.8,12.4-7.6,18-12.3c1.4-1.2,2.9-2.2,4.3-3.2c3.2-2.1,4.9-3.1,7.4-6.4c1.6-2.2,3.3-4.1,2.8-8.1c2.3-0.7,2.2-3.4,2.7-6.4
	c1-6.6-0.5-13.6-3.4-17.6l0.9-0.2l0.6-0.7c3.3,5.3,7.9,9.3,9.3,16.5c0.4-3.5,0-7.6-0.4-10.2c1.7,0.9,2.4,2.9,3.2,4.7
	c0.8,0.1,1.2,2.3,1.7,1.5c-0.2-1.3-0.6-2.4-0.6-4l0.8,0.1l0.7-0.3c1.2,3.6,3,7.1,4.2,10.2c-1.5,1.2-2.9,2.8-4.5,4.4
	c-1.5,1.5-3.5,2.6-4.7,4c-1,1.1-1.3,2.6-2.5,3.2s-2.7,0.3-3.8,0.9c-1.4,0.7-1.6,1.9-2.6,3.2c-6.2,5.1-11.4,10.8-18.5,15.1
	c-2.3,1.4-4.9,2.5-7.2,4c-0.7,0.5-1.3,1.4-2.1,1.9c-1.9,1.2-4.1,1.9-5.7,3.6c-0.9,0.1-0.7-0.9-1.5-0.4c-4.3,2-11.8,0.8-13.6,5.3
	c0.2,3.7,2.9,5,4.4,7.6c-0.9,0.2-1.7,0.5-2.8,0.4c1.9,3.4,6.3,4.3,8.1,7.8l-0.6,0.5v0.8c-1.3-0.6-3.3,0-4.7,0.4
	c1.7,2.7,5.2,3.5,7.9,5.1c0.8,3.5-1.6,6.2-4.2,6.1c-2.2-0.1-6.1-4.3-6.2-7.2c-1.3-1-2.7-1.8-3.8-3c-0.1-1.7-1-2.5-0.8-4.5
	c1-0.7,2.4-1,2.8-2.3c-0.4-0.3-0.4-0.9-1.1-0.9c-0.9,2-3,2.7-3.2,5.3c-0.9,0.1-1.5,0.6-2.5,0.6L210.9,256z"/>
<path class="st3" d="M189.2,495.6l0.8-0.6c1.6,0.6,2.8,1.5,4.3,1.7l-0.1,0.9l0.3,0.8c-2.6,0.6-5.5-0.2-6.1-2.3L189.2,495.6z"/>
<path class="st3" d="M213.4,377.6h-0.9c-0.6-5.8-0.4-12.5-1.3-18.2c-2.1,1.1-1.3,4.2-1.3,7c0,2.7-0.2,5.6-0.4,7.9l-0.8-0.1l-0.9-0.1
	c-0.7-9.9-5.5-15-16.3-15.1l0.6-0.8v-0.9c6.5-0.1,12.9-0.4,19.1-0.2c-0.4-2.7-3.5-2.9-7-2.8c-5.6,0-12.3,0.7-16.3-0.8l0.6-0.8v-0.9
	c4-0.2,7.9,0.8,11.9,0.8c3.6-0.1,6.7-1.1,9.8-0.6c1.6,0.3,5.3,1.6,5.9,3c1.1,2.7-0.4,8.9-0.8,11.5c-0.5,4.1-0.5,7.9-1.1,11.5
	L213.4,377.6z"/>
<path class="st3" d="M208.1,485.3l0.6-0.5c0.4,0.9,0.1,2.7,0.2,4c-2.1,0.4-3.6,1.4-6.2,1.3c0.9-1.1,2.9-1.2,3.6-2.5
	c-1.5-0.1-2.8-0.4-3-1.7c1.1-0.6,2.8-0.6,4.2-0.9L208.1,485.3z"/>
<path class="st3" d="M280.4,136.6c4.2-0.8,6.4,2,9.1,3.4c0.1,1.5,0.4,2.8,0.6,4.4c-0.1,0.3-1.7,0-0.9,0.6c-0.9-0.3-1.1-2-1.7-2.8
	C285.6,139.8,282.4,138.6,280.4,136.6"/>
<path class="st3" d="M215.9,223.6c0.2,3,1.5,7.4,0,9.8c-1.6,0.1-1.1-0.4-1.9-0.2c-1-3.1-0.2-7.2,0.6-10.2l0.6,0.5L215.9,223.6z"/>
<path class="st3" d="M238.4,241.8c2.3,1.3,4.9,3.8,8.5,4.3c-0.7-1.5-1.5-2.9-2.5-4.2c3.4,1.7,7,5,10.2,7.6c-0.8,1.8-3.2,0.8-5.1,0.9
	c-1,0.1-2.3,1.1-3.2,0.9c-1.5-0.2-3.4-3.3-4.4-4.5C240.5,245,239.5,243.2,238.4,241.8"/>
<path class="st3" d="M261.1,191.1c-1.6,0.4-3.3,1.5-5.1,0.6c-0.9-2.7-1.6-6.6-5.5-5.7c-0.8-2.4-2.1-4.2-2.5-7c0.3,0,0.7,0.1,0.8-0.2
	c2.4,1.3,3.8,3,5.9,5.1c1.2,1.2,2.1,3,3.2,3.8s3.2,0.6,3.6,2.3C261.3,190.3,260.9,190.5,261.1,191.1"/>
<path class="st4" d="M383.7,66.5c2.2-0.7,4.8,0.2,6.1,2.2"/>
<path class="st5" d="M389.6,81c0.8-1.5,1.1-3.2,1-4.8"/>
<path class="st6" d="M358.2,113.7c0.8-2.9,2.4-5.5,2.9-8.4"/>
<path class="st4" d="M334.4,110.4c-1.4-1.1-2.8-2.4-4.1-3.7"/>
<path class="st6" d="M315.7,107.3c3,1.7,6.2,3.8,8.1,6.9"/>
<path class="st6" d="M262.1,120.2c7,2.2,11.8,8,17,12.8"/>
<path class="st4" d="M331.7,134.9c-0.1-2.1-1.1-4.2-1.2-6.4"/>
<path class="st4" d="M274.2,135.9c-1.6-0.6-5.1-1-6.7-1.6"/>
<path class="st7" d="M390,139.4c1.1-1.5,1.5-3.6,2.6-5.1"/>
<path class="st8" d="M295.6,137.7c1.2,1.2,2.4,2.4,3.8,3.3"/>
<path class="st4" d="M328.7,146.2c1-1.1,1.7-2.4,2.3-3.8"/>
<path class="st9" d="M246.5,145.3c2.7,0.2,4.4,2.5,6.4,4"/>
<path class="st6" d="M238.5,152.8c1.4,0,2.9,0.4,4.3,0.6"/>
<path class="st10" d="M301.2,195.2c-3.2-2.8-10.5-7.4-13.9-9.8"/>
<path class="st6" d="M232.2,158.8c1.7,0.3,3.5,0.5,5.1,1.2"/>
<path class="st8" d="M316.4,207.7c-1.6-2.2-5.4-6.4-8-7.4"/>
<path class="st4" d="M232.6,224C232.6,224,232.7,224,232.6,224c-0.6-1.6-6.3-9-7.1-10.6"/>
<path class="st4" d="M225.6,213.4c-1.9-2.1-3.8-4.3-5.3-6.8"/>
<path class="st4" d="M238.2,222.1c-2.1-1.6-9.3-6-11.7-7.1"/>
<path class="st4" d="M286.5,214c1.6,0.5,4.8,1.4,6.5,1.7"/>
<path class="st4" d="M276.8,230.1c2.2-0.2,6-0.9,8.1-1.2"/>
<path class="st4" d="M275.8,226.1c2.1,0.4,5.8,1.5,8,1.7"/>
<path class="st4" d="M262.8,236.8c-3.9-2.6-8.5-4.4-13.2-4.8"/>
<path class="st4" d="M257.2,244.4c5.6,2.1,11.6,0.4,17.2-1.1"/>
<path class="st6" d="M171.6,319.6c0-2.8,0-5.7-0.1-8.5"/>
<path class="st5" d="M183,512.3c-2.6-0.1-6.7-1.5-8-3.7"/>
<path class="st6" d="M326.9,511.4c1,4.6,1.9,10.2,0.7,14.8"/>
<path class="st6" d="M364.9,61.4c3.2,0.1,6.4-4.2,6.5-6.9"/>
<path class="st5" d="M350.6,81.6c1.2-0.4,2.5-0.8,3.8-0.9"/>
<path class="st5" d="M355.7,79.6c1.5-1.4,3.3-2.3,5.1-3.1"/>
<path class="st4" d="M365.8,73.8c2.6-1,5.1-2.7,8-3"/>
<path class="st4" d="M376.7,70.1c4.7-8.9,16.1-7.8,18.5,1.5c0.2,0.6,0.3,1.1,0.7,1.8"/>
<path class="st11" d="M400.2,73.8c1.2-1,2.4-2.1,2.8-3.6"/>
<path class="st12" d="M403.3,121.5c2.4-0.5-6.5,0.6-5.3,2.7"/>
<path class="st6" d="M210.8,527.4c-2,0.7-4.8,0.8-6.9,0.6"/>
<path class="st13" d="M189.7,515.9c-1.5,0-3.7,0.3-5.2,0.3"/>
<path class="st4" d="M174.4,513c-2.1-2.9-3.8-8.6-3.1-6.6"/>
<path class="st8" d="M363.4,116.2c-0.1-0.9,0.3-1.8,0.2-2.7"/>
<path class="st4" d="M364.3,109.9c0.2-1.8,0.8-3.5,1.4-5.2"/>
<path class="st4" d="M390.3,88c-4.3,1.7-12.1,0.3-11.1-5.9"/>
<path class="st5" d="M305.9,24.6c0.7-1.6,1-3.3,1.1-5.1"/>
<path class="st4" d="M364.9,10c-0.5,4-20.8,12.1-27.8,15c-0.9,0.4-26.8,12.8-27.2,13"/>
<path class="st4" d="M324.2,53.2c-2.6-0.5-11.8-1-14.4-1.6"/>
<path class="st4" d="M291.1,42.4c-2.7-3.5-6.2-6.3-9.7-9"/>
<path class="st4" d="M277.6,33.6c0.1,0.2,0.1,0.4,0.2,0.5c8,4.8,13.5,13.1,16.4,21.9"/>
<path class="st8" d="M277.6,33.6c-1.2-0.3-2.4,0.4-3.5,0.9"/>
<path class="st6" d="M286,81.6c1.7,0.5,3.4,2.1,3.3,4"/>
<path class="st4" d="M289.1,86.5c-2.3,3.2-6.8,0.4-10,1.5"/>
<path class="st14" d="M277.3,101.5c0.5,0,1-0.2,1.4-0.4"/>
<path class="st6" d="M300.7,87c1.6-0.7,3.3-1.2,4.9-1.7"/>
<path class="st8" d="M302.3,89.2c1.4-0.2,2.8-0.5,4.2-0.3"/>
<path class="st8" d="M287.3,34c-1.8-0.8-8.7-1.7-11.8,0"/>
<path class="st4" d="M378.4,72.9c2-2,4.8-3.7,7.8-3.5"/>
<path class="st4" d="M376.5,76.3c-0.3,1.6-1.7,4.4,1,4.7"/>
<path class="st4" d="M390.3,88c0.9-2.2,2.1-4.1,4-5.5"/>
<path class="st15" d="M390.3,88C390.3,88.1,390.3,88.1,390.3,88"/>
<path class="st4" d="M406,83.4c-0.5-2.7-3.1-3.7-5.1-5.1"/>
<path class="st4" d="M347.1,84.2c-1.4,6.4-5.8,12.1-12.5,6.7"/>
<path class="st4" d="M346.5,105.3c2-4.6,4.4-8.9,6.1-13.6"/>
<path class="st4" d="M257.7,106.4c1.7-1.8,2.6-4.3,4.2-6.2"/>
<path class="st4" d="M274,103.2c1.3,0,2.6-0.5,3.2-1.6"/>
<path class="st4" d="M277.3,101.5c-0.6-3.1-2.3-5.7-3.9-8.3"/>
<path class="st4" d="M407.9,91.5c0.9-1.6,0.4-3.6-0.9-4.9"/>
<path class="st4" d="M390.3,88.1c0.1,1-0.9,1.6-1.3,2.3"/>
<path class="st4" d="M274,103.2c-1.3,1-2.7,1.8-3.8,3.1"/>
<path class="st16" d="M228.2,205.5c-4-2.6-7-9.3-9-13.5"/>
<path class="st6" d="M249.3,353.6c2.1-0.1,4,0.8,6.1,1"/>
<path class="st6" d="M265,338.4c-0.8-2.9-0.6-6.9,0.2-9.8"/>
<path class="st4" d="M198.3,270.4c2.8-5.3,8.7-10,12.7-14.4"/>
<path class="st6" d="M258.5,170.8c2.8,1.6,5.2,3.8,6.9,6.5"/>
<path class="st4" d="M278.6,178.7c0.6,2.1,1.1,4.3,1.4,6.4"/>
<path class="st5" d="M227.2,256.5c4.5,2.4,9.5,2.9,14.5,3.1"/>
<path class="st4" d="M274,103.2c-1-2.3-3.8-2.9-5.4-4.7"/>
<path class="st4" d="M372.2,115.7c1.1-0.8,2.2-1.9,2.9-3.2"/>
<path class="st10" d="M363.4,116.2c1.7,0.1,3.3-0.7,4.6-1.6"/>
<path class="st4" d="M363.4,116.2c-0.3,1.5-0.6,3.1-0.6,4.6"/>
<path class="st17" d="M408.1,115.5c2.1-1.5,1.5-4.2,0-5.8"/>
<path class="st4" d="M232.1,121.9c2.3-0.5,3.7-2.7,5.7-3.7"/>
<path class="st4" d="M241,114.9c1.4-1.4,2.4-3.1,3.9-4.4"/>
<path class="st4" d="M234.4,134c1.7-0.7,3.7-1.1,5.1-2.4"/>
<path class="st16" d="M243.3,125.5c0.3-1.3,1.2-2.3,1.5-3.6"/>
<path class="st4" d="M218.3,147.2c2.5-3.5,6-6.3,8.9-9.5"/>
<path class="st8" d="M199.9,184.3c1.6-2.7,3.8-4.8,5.5-7.3"/>
<path class="st6" d="M264,362.7c3.6,0.2,7.1,0.4,10.7,0.4"/>
<path class="st5" d="M193.7,497.8c5.3,0.5,9.7-3.3,14.8-3.5"/>
<path class="st13" d="M213.6,386.7c-0.3-8.8-0.8-3.7,0-11.7"/>
<path class="st6" d="M208.1,485.3c-0.7-27.1,3.9-55.1,0.2-83.2c-1.2-9.1-0.8-18.3,0.3-27.8"/>
<path class="st5" d="M191.6,358.5c-2.2-0.1-4.3-0.2-6.4-0.9"/>
<path class="st6" d="M188.4,352.8c-1.9-0.3-4,0.2-5.9-0.6"/>
<path class="st5" d="M188.7,495.8c-1.2-1.8-2.6-3.5-4.6-4.4"/>
<path class="st6" d="M215.1,229.7c0.2-3.9,0.7-14.1,0.6-18"/>
<path class="st5" d="M194.1,236.2c1.1,2.5,3.7,19.3,4.2,21.9"/>
<path class="st3" d="M168.7,530.6c0.8,0.6,1.3,1.3,1.6,2c0.2,0.7,0.2,1.4-0.1,2c-0.7,0.8-1.3,1.8-1.8,2.7l-0.2,0.4l-1.2,2.6l0,0v0.1
	l-1.5,3.1c-0.1,0.2-0.1,0.3,0,0.4l0,0c0.1,0,0.9-0.1,2.3-0.3c0.4,0.2,0.9,0.1,1.6-0.1c2.3-0.6,3.6-0.8,4-0.6
	c0.3,0.1,2.2-0.5,5.8-1.7c1.2-0.4,2.2-0.8,2.9-1.3c1-0.5,1.7-0.7,1.9-0.6c0.4,0,0.7,0,0.9,0.1c0.6,0.3,1,1.2,1.3,2.6
	c0,0.3,0,0.6-0.2,0.8l-0.1,0.1c-0.2,0.4-0.8,0.8-1.8,1.1c-0.5,0.4-1.7,0.8-3.4,1.4c-1.8,0.5-2.8,0.9-3,1.1c-0.5,0.2-1.2,0.3-1.9,0.4
	c-1.5,0.4-2.8,0.7-3.9,0.9c-1.1,0.3-1.7,0.4-1.8,0.5l-0.1,0.1v0.1c-0.1,0.5,0,1.2,0.3,2.1c0.1,0.2,0.4,1.1,0.7,2.5
	c0.2,0.5,0.5,1.7,0.9,3.5c0,0.1,0.2,1.1,0.7,3c0.1,1.2,0.5,2.8,1.2,5c0.1,0.2,0.3,0.9,0.5,2.1c0.3,0.6,0.3,1.1,0,1.7
	c-0.5,1.1-1.5,1.4-2.8,1.1c-0.3-0.1-0.7-0.6-1.1-1.3c-0.4-0.5-0.7-1.4-0.7-2.5c-0.2-0.2-0.4-1-0.7-2.5c-0.3-1-0.6-1.9-0.7-2.7
	c-0.1-0.2-0.2-0.7-0.2-1.6c-0.3-1.4-0.6-2.7-1-4c-0.1,0-0.5-1.1-1.2-3.2c-0.1-0.4-0.5-0.9-1.1-1.6l-0.2-0.1l-1.1-0.2
	c-0.5-0.2-0.8-0.2-0.9,0l-0.3,0.8l-0.6,0.9l-1.1,2.3l-0.5,0.7l-0.3,0.6l-0.7,1.9l0,0l-1.2,2.9c-0.6,1.2-1.4,1.7-2.4,1.4l-0.5-0.1
	l-0.2-0.1c-0.4-0.2-0.8-1-1.3-2.3c0-0.3,0.1-0.6,0.3-0.9l0.1-0.1l0.1-0.3l0.1-0.3l0.1-0.1l0.1-0.3v-0.1l1.3-2.8l1.2-2.3l0.6-1.2
	l0.4-0.6l0.8-1.7c1-2.1,1.4-3.1,1.4-3.1l0.6-1.1l0.3-0.7l0,0v-0.1l0,0l0.4-0.7l0.4-1.2l0.8-1.5l0.2-0.5l0.5-0.9
	c0.3-0.6,0.6-1.3,0.9-2.1l0.2-0.2l0.1-0.2l0.2-0.5l0,0v-0.1l0.5-1c0.1-0.6,0.4-1.3,0.8-2.3c0.8-1.1,1.3-1.6,1.6-1.5
	C167.8,530.4,168.4,530.5,168.7,530.6L168.7,530.6z"/>
<path class="st3" d="M196.2,553c1.7,0.8,2.5,1.2,2.4,1.4c1.5,1.6,2.3,3,2.4,4.3c0.2,0.7,0.2,1.5,0.1,2.4c0.1,0.7-0.1,1.7-0.6,2.9
	c-0.4,1.2-1,2.4-1.8,3.7l-0.2,0.6l-0.8,2.2c-0.2,0.7-0.3,1.5-0.2,2.7c-0.3,1-0.3,1.6,0,1.6c0.8,1,1,1.8,0.7,2.6l-0.2,0.5
	c-0.2,0.6-0.9,0.9-2.1,1.1c-0.1,0-0.3,0-0.6-0.1l-0.6-0.2c-0.7-0.3-1.4-1-2.1-2.1h-0.1c-0.1,0-0.4,0-0.9,0.1
	c-2.8-0.4-4.7-0.8-5.8-1.2c-1.3-0.5-2.4-1.3-3.5-2.5c-0.6-1.4-0.9-2.1-0.9-2.2c-0.2-0.5-0.2-1.4-0.1-2.7V568
	c0.5-1.3,1.4-2.4,2.7-3.1c0.3-0.3,1.2-0.7,2.7-1.2l2.3-0.6c2.3-0.5,4-0.7,5.4-0.7c1.2,0.1,1.8,0.1,1.9-0.1l0.1-0.2
	c0.4-1,0.5-1.8,0.4-2.4c0.1-0.2-0.1-0.6-0.4-1.1c-0.4-0.6-0.9-0.9-1.4-1.1c-0.6-0.2-1.6,0-2.9,0.6c-0.5,0.3-0.8,0.6-0.9,0.9
	l-0.3,1.2c-0.2,0.6-0.8,0.8-1.7,0.7l-0.3-0.1c-0.7-0.3-1.2-0.9-1.6-2c0-0.4,0-0.7,0.1-1l0.2-0.6c0.4-1.1,1.7-2.3,3.9-3.5
	c0.6-0.2,1.7-0.4,3.3-0.6C195,552.8,195.5,552.9,196.2,553z M184.8,568.7l-0.1,0.2c0,0.7,0.1,1.1,0.4,1.3c0.3,0.4,0.9,0.8,1.9,1.2
	c1.4,0.5,2.5,0.8,3.4,0.8c0.4,0.1,0.8-0.1,1.3-0.7c1.1-1,1.9-2,2.3-3.1l0.7-2c0.1-0.1,0-0.2,0-0.3h-0.1c-1.4-0.2-4,0.3-7.7,1.4
	C185.7,567.9,185.1,568.3,184.8,568.7z"/>
<path class="st3" d="M217.7,555.8c0.3,0.1,0.7,0.5,0.9,1.1c0.3,0.9,0.4,1.8,0.1,2.8l-0.2,0.7c0,0.2,0.1,0.4,0.3,0.4h0.1
	c0.4,0.1,0.9,0.2,1.5,0.2l0.3,0.1l0.7,0.2c0.8,0.2,1.2,0.8,1.3,1.7l-0.3,1.6c-0.1,0.3-0.4,0.7-0.9,1.1c-0.7,0.3-1.3,0.3-1.6,0.2
	l-0.9-0.3c-1.7-0.3-2.6-0.5-2.6-0.4c-0.4-0.1-0.8,0.6-1.2,2.2l-0.1,0.2l-0.2,0.9l-0.5,1c-0.9,4.2-1.4,7-1.5,8.6
	c0,0.6,0.1,0.9,0.3,0.9s0.9-0.1,2.2-0.4l1.6,0.3c0.3,0.1,0.6,0.5,0.7,1.3c0,0.4,0,0.6,0,0.8l-0.1,0.4c-0.2,0.8-0.8,1.2-1.9,1.4
	c-1.7,0.5-2.9,0.7-3.4,0.6c-0.4,0.1-0.9,0.1-1.6-0.1c-0.8-0.2-1.5-1.1-2.1-2.6c-0.3-1-0.4-1.7-0.3-2.2c0.1-0.4,0.2-0.8,0.2-1.5
	l0.3-0.7c0-0.6,0.1-1.2,0.2-1.8l0.4-1.3l0.4-1.7l0.4-1.5l0.8-3.3l0.5-1.6c0.1-0.3-0.2-0.7-1-1.1c-0.7-0.7-1-1.4-1.1-2
	c-0.1-0.4-0.2-0.7-0.1-1l0.1-0.5c0.2-0.6,0.5-1.1,1.1-1.5c0.4-0.3,1.2-0.3,2.4-0.2c0.5,0,0.7-0.1,0.8-0.5c0.6-1.5,1.1-2.3,1.6-2.5
	c0.2-0.2,0.5-0.3,0.9-0.4L217.7,555.8z"/>
<path class="st3" d="M237.7,565l3.3,1.2c1.7,1.1,2.9,2.8,3.6,5.1l0.5,2.4c0.1,0.5,0.1,1,0,1.7l0,0v0.1l0,0c-0.1,0.8-0.6,1.3-1.5,1.6
	c-0.1,0.1-0.3,0.2-0.6,0.2c-2.2-0.5-3.3-0.8-3.3-0.9L238,576h-0.3c-0.3,0-0.8-0.1-1.7-0.1l-3.2-0.4l-0.4-0.1l-0.8-0.2
	c-1.2,0-1.9,0.1-1.9,0.3l-0.1,0.3c0,1.6,0.1,3.1,0.2,4.4c0.1,1.1,0.3,1.9,0.7,2.4c0.7,0.9,1.6,1.5,2.5,1.6l0.4,0.1
	c1.4,0.3,2.8,0.1,4.3-0.5c0.4-0.3,0.8-0.8,1.3-1.5c1.1-1.2,1.7-1.9,1.9-1.8c0.1-0.2,0.5-0.2,1.1-0.1c0.6,0.1,1.2,0.7,1.8,1.6
	c0.1,0.3,0.1,0.7,0.1,1.2c-0.1,0.6-0.5,1.1-1.2,1.6c-0.8,1-1.6,1.8-2.4,2.5c-0.9,0.5-1.5,0.8-2,0.8c-0.1,0.1-0.8,0.1-1.9,0.2
	c-0.8,0.2-1.9,0.2-3.3,0c-1-0.2-2.4-0.8-4.1-1.8c-0.8-0.7-1.3-1.2-1.4-1.5l-1.1-1.9c-0.3-1-0.5-1.7-0.6-2.1
	c-0.2-1.1-0.3-2.4-0.4-3.7c-0.1-1.3,0-2.7,0.3-4.2l0.1-0.4c0.2-1.2,0.9-2.4,2-3.5c0.5-0.8,1.3-1.6,2.4-2.3c1.1-0.9,2.2-1.4,3.1-1.6
	c1.6-0.5,2.7-0.7,3.2-0.6L237.7,565z M232.3,570.8c0.3,0.2,0.7,0.3,1.3,0.4c1.2,0.2,3,0.4,5.2,0.6c1.1,0.2,1.6,0.2,1.6,0.1v-0.2
	c-0.1-0.8-0.3-1.2-0.7-1.3c-0.5-0.7-1.3-1.1-2.2-1.4c-1.5-0.3-2.7-0.1-3.5,0.4c-0.4,0-1,0.4-1.7,1.1L232.3,570.8z"/>
<path class="st3" d="M253.2,567.5h0.3c0.6,0.1,1.2,0.4,1.8,1.1l0.7,1.5h0.1l3.4-1.3c0.8-0.2,1.3-0.2,1.5-0.2c1.8,0.2,3,0.5,3.4,1
	c1.2,0.9,2,2,2.3,3.4c0.3,1.1,0.6,2.4,0.8,3.6c0.3,0.8,0.4,3.2,0.3,7.3l-0.2,1.1v0.8l-0.2,1v0.2c-0.1,0.2-0.1,0.6-0.2,1v0.5v0.6
	c-0.2,1.5-0.5,2.5-0.7,2.9c-0.4,0.4-0.9,0.6-1.4,0.7h-0.2c-0.5-0.1-1.1-0.4-1.8-0.8c-0.6-0.6-0.8-1.1-0.8-1.7c0,0-0.1-0.1-0.1-0.4
	c0.2-0.3,0.5-2,1-5.1l0.2-1.5v-0.3c0.1-2.9,0.1-4.3,0-4.3c0-0.5,0-1.1-0.2-1.8c-0.3-2.1-0.6-3.1-1.1-3.2h-0.2
	c-0.8-0.1-1.8,0.1-2.8,0.4c-0.8,0.6-1.5,1-2.2,1.4c0,0.1-0.3,0.3-0.8,0.8c-0.7,0.5-1.1,0.8-1.1,1l-0.1,0.1v0.6l-0.2,1.2v0.3l-0.1,1
	c-0.1,0.7-0.1,1.8,0,3.2l-0.3,4.2v2.4c-0.5,0.9-1,1.3-1.5,1.3c-0.8-0.1-1.6-0.5-2.5-1.3c-0.2-0.3-0.3-0.8-0.3-1.5l0.1-1.8l0.2-1
	c0.2-2.6,0.3-4.2,0.2-4.9l0.1-0.6l0.2-2.1v-1.1l0.1-0.4v-0.9l0.1-0.4v-0.8l0.1-0.5v-3.3c0-0.5,0-0.9,0-1.2c0.3-1,0.6-1.5,0.8-1.4
	C252.4,567.6,252.8,567.5,253.2,567.5z"/>
<path class="st3" d="M288.9,556.7c0.5,0,1,0.2,1.6,0.7c0.5,0.7,0.8,1.3,0.8,1.9l-0.2,1.3l0.5,3.6l0.1,0.5v1.2l0.2,5.3v0.5
	c0.2,0.5,0.4,1.2,0.5,2.1c-0.2,1-0.3,1.7-0.3,2l0.4,4.3v0.2c-0.2,0.8-0.3,1.8-0.3,2.9c-0.2,0.5-0.3,1-0.2,1.4l0.1,1.2l-0.1,2.1v0.2
	c-0.2,1.5-0.5,2.5-0.8,2.9c-0.8,0.9-1.6,1.4-2.5,1.5c-0.9,0.3-2,0.5-3.2,0.5h-0.2c-1.9-0.1-2.9-0.2-2.9-0.4c-2-0.7-3-1.2-3.1-1.5
	c-1.2-0.9-2.1-1.8-2.7-2.6l-1.3-1.6c0-0.1-0.3-0.9-0.9-2.3l-0.5-1.5c-0.3-0.9-0.4-1.9-0.4-2.9V580l0.1-0.4c0-1.6,0.4-3.3,1.3-5.1
	c0.6-1.1,1.1-1.9,1.6-2.3c0.9-0.9,1.7-1.5,2.2-1.9c0.5-0.5,1.4-1,2.6-1.6c1.1-0.7,2.4-1.1,3.7-1.1c0.4,0,1.1,0.2,2.2,0.5l0,0
	c0.2-0.1,0.3-0.7,0.3-1.7c0-1.2-0.2-2.8-0.6-4.7c-0.2-1.1-0.3-1.9-0.3-2.3c0-0.7,0.3-1.4,1-2.1C288.1,556.9,288.5,556.7,288.9,556.7
	z M277.6,579.7c0,0.4,0.2,1.3,0.5,2.7c0.6,1.5,1.2,2.5,1.8,3.2c0.4,0.6,1,1.3,1.9,2.1c0.9,0.6,2,0.9,3.2,0.9h0.4h0.1
	c1.4-0.1,2.1-0.5,2.1-1.1l0.1-1.3l0,0v-0.1v-0.2c0-1.8,0-3.1,0.2-4.1l0.1-2.4c0-1.6-0.2-2.8-0.4-3.7c-0.1-1.1-0.2-1.8-0.3-2
	c-0.4-0.7-1.1-1.2-2.1-1.5l-0.8-0.2c-0.8,0-2.2,0.7-4,2c-1,1.1-1.6,1.8-1.7,2.1c-0.3,0.3-0.5,0.9-0.8,1.8
	C277.9,577.8,277.7,578.4,277.6,579.7L277.6,579.7z"/>
<path class="st3" d="M306.9,568l0.8-0.1c0.6,0.1,1.2,0.3,1.7,0.6c0.9,0.7,1.5,1.3,1.8,1.8c0.4,0.6,0.7,1.1,0.7,1.4v0.3
	c0.1,0.6-0.2,1.1-0.8,1.6c0,0.1-0.3,0.3-0.9,0.4c-0.6,0.1-1.3-0.3-2.1-1c-0.3-0.1-0.7-0.2-1.2-0.3c-0.4,0-1,0.6-1.8,1.8
	c-0.1,0-0.3,0.3-0.7,0.8c-0.3,0.4-0.6,0.8-0.7,1.3c-0.2,0.5-0.6,0.8-1,1.1c-0.1,0.2-0.2,0.4-0.2,0.7l0.2,1.1v0.2
	c0,0.5,0.2,1.6,0.6,3.2v0.4l0.3,1.8v0.1l0.8,4.5v0.1c0.1,0.9-0.2,1.6-0.8,2.1c-0.2,0.3-0.4,0.4-0.7,0.4h-0.3
	c-0.9-0.2-1.7-0.6-2.3-1.3c-0.5-0.5-0.7-1-0.8-1.4v-1l-0.1-0.7v-0.6l-0.5-2.9l-0.1-0.6l-0.1-1l0,0l0,0l-0.9-6.3l-0.4-3.7l-0.2-1.5
	v-0.1c-0.1-0.9,0.3-1.7,1.2-2.3l0.4-0.1h0.3c0.9-0.1,1.7,0.3,2.4,1.3c0.2,0.2,0.4,0.3,0.5,0.3c0.5-0.3,1.2-0.8,2.1-1.4
	C304.8,568.4,305.8,568.1,306.9,568z"/>
<path class="st3" d="M326,565.1h3.5c2,0.5,3.7,1.6,5.2,3.5l1.3,2.1c0.2,0.4,0.4,1,0.6,1.6l0,0h0.1l0,0c0.1,0.8-0.1,1.4-0.8,2
	c0,0.1-0.2,0.2-0.5,0.4c-2.3,0.3-3.4,0.5-3.4,0.3l-1.8,0.2h-0.3c-0.3,0-0.8,0.2-1.6,0.5l-3.2,0.8l-0.4,0.1l-0.8,0.1
	c-1.2,0.5-1.7,0.8-1.7,1v0.3c0.6,1.5,1.2,2.9,1.8,4.1c0.5,1,1,1.7,1.5,2c1,0.6,2,0.8,2.9,0.7l0.4-0.1c1.4-0.2,2.7-0.9,3.9-2
	c0.2-0.4,0.5-1,0.7-1.8c0.6-1.5,0.9-2.3,1.2-2.4c0.1-0.2,0.4-0.3,1-0.4c0.7-0.1,1.4,0.2,2.2,0.9c0.2,0.2,0.3,0.6,0.5,1.1
	c0.1,0.6-0.1,1.2-0.5,1.9c-0.4,1.2-0.8,2.3-1.3,3.1c-0.6,0.8-1.2,1.3-1.6,1.5c-0.1,0.1-0.7,0.4-1.7,0.8c-0.7,0.4-1.7,0.8-3.1,1.2
	c-1,0.2-2.6,0.1-4.5-0.2c-1-0.4-1.6-0.7-1.9-0.9l-1.7-1.4c-0.7-0.8-1.1-1.4-1.3-1.8c-0.6-1-1.1-2.1-1.6-3.4c-0.5-1.2-1-2.6-1.2-4.1
	l-0.1-0.4c-0.2-1.2,0-2.6,0.6-4c0.2-0.9,0.7-1.9,1.4-3c0.7-1.2,1.5-2.1,2.3-2.6c1.3-1,2.3-1.6,2.8-1.7L326,565.1z M323,572.5
	c0.3,0.1,0.8,0,1.3-0.1c1.2-0.2,2.9-0.6,5.1-1.3c1.1-0.2,1.6-0.4,1.5-0.5v-0.2c-0.4-0.7-0.7-1-1.1-0.9c-0.7-0.4-1.6-0.6-2.5-0.6
	c-1.5,0.3-2.5,0.8-3.1,1.6c-0.4,0.2-0.8,0.7-1.2,1.6L323,572.5z"/>
<path class="st3" d="M350.1,558.9c0.6-0.2,1.7-0.2,3.2,0c0.6,0,1.8,0.5,3.6,1.5c0.8,0.6,1.3,1.1,1.5,1.5c0.3,0.3,0.6,0.7,0.7,1.1
	v0.2c0.3,1.1-0.1,2-1.3,2.8l0,0c-1.1,0.1-1.7,0.1-1.7-0.1c-0.6-0.4-1-0.9-1.1-1.5c-0.3-0.6-1.2-1.1-2.5-1.5c-0.5-0.1-0.9-0.1-1.3,0
	l-0.3,0.1c-1,0.5-1.8,1-2.2,1.5c-1,1.2-1.6,2.4-1.9,3.9c-0.2,1-0.3,1.9-0.2,2.6v0.6c0.4,1.2,0.9,2.3,1.4,3.4c0.4,0.3,0.9,1,1.5,1.9
	c1.6,1.7,3,2.4,4.2,2.1l0.2-0.1c1.1-0.4,2.4-1.3,3.8-2.7c0.8-0.8,1.2-1.8,1.3-2.9c0.4-1.8,0.7-2.9,1-3.1c0.2-0.4,0.6-0.7,1-0.8
	c0.9-0.2,1.7,0,2.4,0.8l0.2,0.4l0.1,0.4c0.2,0.6,0.1,1.3-0.2,2l-0.4,2.4c-0.3,1-0.6,1.8-0.9,2.3c-1.2,1.7-2.4,2.9-3.9,3.6
	c-0.4,0.5-1.5,1.1-3.1,1.8l-0.3,0.1c-1.3,0.2-2.2,0.2-2.6,0.2c-0.7-0.1-1.3-0.3-1.9-0.8c-1.4-0.8-2.4-1.6-3-2.2
	c-0.8-0.6-1.5-1.5-2.2-2.8c-0.5-0.4-1.2-1.8-2.1-4.3l-0.4-2.4c0.1-0.4,0.1-1,0.1-1.7c0.2-1.5,0.6-2.9,1.3-4.3
	c0.7-1.6,1.5-2.7,2.3-3.5l1.1-1.1C348.1,559.7,349.2,559.2,350.1,558.9z"/>
<path class="st3" d="M361.4,544.9l0.4-0.1c0.4-0.1,0.9,0,1.7,0.3c0.7,0.6,1.1,1,1.3,1.4c0.2,1,0.7,2.3,1.3,4l2.5,5.2l0.1,0.2
	c0.1,0.1,0.1,0.1,0.2,0.1l0,0c0.1-0.1,0.4-0.4,0.8-1.1c0.3-0.5,1.1-1.1,2.2-1.9c0.7-0.6,1.6-1.1,2.9-1.6l0,0c1.6-0.2,2.4-0.2,2.5,0
	c0.1-0.1,0.7,0.2,1.7,0.8c1.4,1,2.2,1.8,2.4,2.2c0.3,0.2,0.7,0.9,1.4,2l2.1,4.2v0.1v0.1h0.1l0.1,0.2l0.3,1l0.1,0.1
	c0.3,1.1,0.7,2.4,1,3.8c0.6,1.8,0.9,2.8,0.9,3.2c-0.1,0,0,0.2,0.1,0.4c0,0.9-0.4,1.5-1.1,1.8l-0.3,0.1c-0.7,0.3-1.6,0-2.6-0.8
	c-0.2-0.2-0.3-0.4-0.4-0.7l-0.1-0.2c-0.2-0.6-0.4-1.4-0.5-2.4l-1.1-4.4l-1-2.1l-0.3-0.8l-1.3-2.5l-0.7-1.1c-0.6-0.6-1.1-0.8-1.7-0.6
	l-1.9,1.1c-0.8,0.7-1.4,1.4-1.8,2.1c-0.6,1.5-1.1,2.3-1.5,2.5c-0.2,0.2-0.2,0.5-0.1,0.8v0.1l0,0l0.1,0.3l0.1,0.2
	c1.3,3.5,2,5.8,2.2,6.9l0.2,0.4l0.2,1l0.5,1.2l0.3,0.9l0.1,0.2v0.2l0.1,0.2l0.5,0.9c0.1,0.9,0.1,1.4,0,1.5c0.1,0.2-0.4,0.5-1.4,1
	c-0.6,0.2-1.4,0-2.5-0.8c-0.2-0.2-0.3-0.4-0.4-0.6l-0.3-1l-0.2-0.4c-0.3-0.8-1-3-2.1-6.5c-0.6-1.7-1-3-1.2-4l-0.2-0.4l-0.4-1.4
	l-0.5-0.9l-0.1-0.5l-0.5-1.2c-0.5-0.7-1-1.7-1.4-2.9c-0.3-0.8-1-2.1-2.1-4.1l-0.1-0.4l-0.2-0.5l-1.3-2.9c-0.7-1.7-0.7-2.8,0-3.3
	L361.4,544.9z"/>
<path class="st3" d="M388.4,539.8c0.3-0.2,0.8-0.1,1.4,0.2c0.8,0.4,1.5,1.1,1.9,2l0.3,0.7c0.1,0.2,0.3,0.2,0.5,0.1h0.1
	c0.4-0.2,0.8-0.5,1.3-0.8l0.3-0.1l0.7-0.3c0.8-0.4,1.4-0.3,2.1,0.4l0.9,1.4c0.2,0.3,0.2,0.8,0,1.4c-0.4,0.7-0.7,1.1-1.1,1.3
	l-0.9,0.4c-1.5,0.9-2.3,1.4-2.2,1.4c-0.3,0.2-0.2,1,0.6,2.5l0.1,0.3l0.5,0.8l0.3,1c2.1,3.7,3.7,6.2,4.6,7.5c0.4,0.4,0.6,0.6,0.8,0.5
	c0.2-0.1,0.6-0.7,1.4-1.8l1.4-0.8c0.3-0.2,0.8,0,1.4,0.5c0.3,0.3,0.4,0.5,0.5,0.6l0.2,0.4c0.4,0.7,0.2,1.5-0.5,2.3
	c-0.9,1.6-1.7,2.5-2.1,2.7c-0.2,0.3-0.6,0.7-1.3,1c-0.7,0.4-1.8,0.2-3.3-0.5c-0.9-0.5-1.4-1-1.7-1.5c-0.2-0.3-0.4-0.7-0.8-1.2
	l-0.2-0.7c-0.4-0.4-0.8-0.9-1-1.5l-0.6-1.2l-0.9-1.6l-0.7-1.4l-1.6-3l-0.7-1.6c-0.1-0.3-0.6-0.3-1.5-0.2c-0.9-0.1-1.7-0.3-2.1-0.8
	c-0.3-0.2-0.6-0.4-0.8-0.7l-0.2-0.5c-0.3-0.6-0.4-1.2-0.2-1.9c0.1-0.5,0.7-1.1,1.7-1.8c0.4-0.3,0.5-0.6,0.3-0.9
	c-0.5-1.5-0.7-2.5-0.5-2.9c0-0.3,0.1-0.6,0.4-0.9L388.4,539.8z"/>
</svg>
