<?xml version="1.0" encoding="UTF-8"?>
<svg id="Layer_1" data-name="Layer 1" xmlns="http://www.w3.org/2000/svg" viewBox="0 0 788.28 193.88">
  <defs>
    <style>
      .cls-1 {
        fill: #002e47;
      }
    </style>
  </defs>
  <path class="cls-1" d="M68.52,188.03c-3.9,1.24-8.15,2.3-12.75,3.19-4.61.88-9.56,1.33-14.87,1.33-14.7,0-24.88-4.12-30.54-12.35-5.67-8.23-7-19.52-3.98-33.86l15.4-72.51H0l4.52-22.04h21.78l7.97-37.18h27.62l-7.97,37.18h35.32l-4.51,22.04h-35.32l-15.4,73.04c-1.42,6.73-1.15,12.22.8,16.47,1.95,4.25,6.28,6.37,13.01,6.37,3.54,0,6.64-.31,9.3-.93,2.66-.62,5.13-1.28,7.44-1.99l3.98,21.25Z"/>
  <path class="cls-1" d="M189.22,84.86c-.8-4.87-3.1-8.81-6.91-11.82-3.81-3.01-9.79-4.52-17.93-4.52-10.09,0-17.66,1.42-22.71,4.25-5.05,2.83-8.99,7.97-11.82,15.4l-24.97-2.92c4.07-13.45,11.29-23.11,21.65-28.95,10.36-5.84,23.94-8.76,40.77-8.76,14.87,0,26.07,2.79,33.6,8.37,7.52,5.58,12.26,12.84,14.21,21.78,1.95,8.94,1.86,18.37-.26,28.28l-17.79,83.66h-26.56l3.98-18.32c-6.37,6.55-13.28,11.78-20.71,15.67-7.44,3.89-16.65,5.84-27.62,5.84s-19.17-2.3-25.63-6.9c-6.47-4.6-10.85-10.58-13.15-17.93-2.3-7.34-2.57-15.18-.8-23.5,2.13-9.73,6.77-17.4,13.94-22.97,7.17-5.58,16.11-9.65,26.82-12.22,10.71-2.56,22.53-4.03,35.45-4.38l24.97-.8.8-3.45c1.24-5.66,1.46-10.93.66-15.8ZM181.12,136.51l2.92-14.34-21.25,1.06c-16.11.71-27.89,2.92-35.32,6.64-7.44,3.72-11.95,9.21-13.55,16.47-.89,4.07-.93,8.06-.13,11.95.8,3.9,2.83,7.08,6.11,9.56,3.27,2.48,8.1,3.72,14.47,3.72,7.44,0,14.43-1.42,20.98-4.25,6.55-2.83,12.13-6.91,16.73-12.22,4.6-5.31,7.61-11.51,9.03-18.59Z"/>
  <path class="cls-1" d="M287.36,160.15l61.35-108.36h31.07l-82.86,137.84h-30.01l-24.7-137.84h30.28l14.87,108.36Z"/>
  <path class="cls-1" d="M408.33,149.39c1.86,6.82,5.4,12.35,10.62,16.6,5.22,4.25,12.52,6.37,21.91,6.37,10.09,0,17.7-1.95,22.84-5.84,5.13-3.89,8.85-9.38,11.15-16.47h26.56c-3.9,13.46-10.76,24.13-20.58,32-9.83,7.87-23.95,11.82-42.36,11.82-12.93,0-23.59-2.44-32-7.3-8.41-4.87-14.79-11.37-19.12-19.52-4.34-8.14-6.95-17.08-7.83-26.82-.89-9.73-.26-19.47,1.86-29.21,2.48-11.51,6.86-22.09,13.15-31.74,6.28-9.65,14.48-17.35,24.57-23.11,10.09-5.75,22.31-8.63,36.65-8.63,12.22,0,22.13,2.35,29.75,7.04,7.61,4.69,13.32,10.8,17.13,18.32,3.81,7.53,6.06,15.67,6.77,24.43.71,8.76.17,17.22-1.59,25.36l-1.06,4.78h-100.39c-.53,7.79.13,15.1,1.99,21.91ZM417.49,88.97c-3.54,6.2-6.2,12.75-7.97,19.65h73.3c1.42-12.39-.44-22.22-5.58-29.48-5.14-7.26-13.1-10.89-23.9-10.89-8.68,0-15.94,1.9-21.78,5.71-5.84,3.81-10.54,8.81-14.08,15.01Z"/>
  <path class="cls-1" d="M537.53,0h27.89v189.63h-27.89V0Z"/>
  <path class="cls-1" d="M600.48,0h27.89v189.63h-27.89V0Z"/>
  <path class="cls-1" d="M686.92,149.39c1.86,6.82,5.4,12.35,10.62,16.6,5.22,4.25,12.52,6.37,21.91,6.37,10.09,0,17.7-1.95,22.84-5.84,5.13-3.89,8.85-9.38,11.15-16.47h26.56c-3.9,13.46-10.76,24.13-20.58,32-9.83,7.87-23.95,11.82-42.36,11.82-12.93,0-23.59-2.44-32-7.3-8.41-4.87-14.79-11.37-19.12-19.52-4.34-8.14-6.95-17.08-7.83-26.82-.89-9.73-.26-19.47,1.86-29.21,2.48-11.51,6.86-22.09,13.15-31.74,6.28-9.65,14.48-17.35,24.57-23.11,10.09-5.75,22.31-8.63,36.65-8.63,12.22,0,22.13,2.35,29.75,7.04,7.61,4.69,13.32,10.8,17.13,18.32,3.81,7.53,6.06,15.67,6.77,24.43.71,8.76.17,17.22-1.59,25.36l-1.06,4.78h-100.39c-.53,7.79.13,15.1,1.99,21.91ZM696.09,88.97c-3.54,6.2-6.2,12.75-7.97,19.65h73.3c1.42-12.39-.44-22.22-5.58-29.48-5.14-7.26-13.1-10.89-23.9-10.89-8.68,0-15.94,1.9-21.78,5.71-5.84,3.81-10.54,8.81-14.08,15.01Z"/>
</svg>